<?xml version="1.0" encoding="utf-8" standalone="no"?>
<!DOCTYPE svg PUBLIC "-//W3C//DTD SVG 1.1//EN"
  "http://www.w3.org/Graphics/SVG/1.1/DTD/svg11.dtd">
<svg xmlns:xlink="http://www.w3.org/1999/xlink" width="424.8pt" height="280.8pt" viewBox="0 0 424.8 280.8" xmlns="http://www.w3.org/2000/svg" version="1.1">
 <metadata>
  <rdf:RDF xmlns:dc="http://purl.org/dc/elements/1.1/" xmlns:cc="http://creativecommons.org/ns#" xmlns:rdf="http://www.w3.org/1999/02/22-rdf-syntax-ns#">
   <cc:Work>
    <dc:type rdf:resource="http://purl.org/dc/dcmitype/StillImage"/>
    <dc:date>2026-07-17T17:51:22.293358</dc:date>
    <dc:format>image/svg+xml</dc:format>
    <dc:creator>
     <cc:Agent>
      <dc:title>Matplotlib v3.11.0, https://matplotlib.org/</dc:title>
     </cc:Agent>
    </dc:creator>
   </cc:Work>
  </rdf:RDF>
 </metadata>
 <defs>
  <style type="text/css">*{stroke-linejoin: round; stroke-linecap: butt}</style>
 </defs>
 <g id="figure_1">
  <g id="patch_1">
   <path d="M 0 280.8 
L 424.8 280.8 
L 424.8 0 
L 0 0 
z
" style="fill: #ffffff"/>
  </g>
  <g id="axes_1">
   <g id="patch_2">
    <path d="M 47.439986 121.11987 
L 417.6 121.11987 
L 417.6 11.378278 
L 47.439986 11.378278 
z
" style="fill: #ffffff"/>
   </g>
   <g id="line2d_1">
    <path d="M 65.947986 21.196337 
L 102.963988 30.697012 
L 139.979989 40.240326 
L 176.995991 49.800487 
L 214.011992 59.368435 
L 251.027994 68.940428 
L 288.043995 78.514697 
L 325.059996 88.090324 
L 362.075998 97.666795 
L 399.091999 107.243808 
" clip-path="url(#p0e6b8c910f)" style="fill: none; stroke: #0000ff; stroke-linecap: square"/>
    <defs>
     <path id="m1a416e2edb" d="M -3 3 
L 3 -3 
M -3 -3 
L 3 3 
" style="stroke: #0000ff; stroke-width: 0.5"/>
    </defs>
    <g clip-path="url(#p0e6b8c910f)">
     <use xlink:href="#m1a416e2edb" x="65.947986" y="21.196337" style="fill: #0000ff; stroke: #0000ff; stroke-width: 0.5"/>
     <use xlink:href="#m1a416e2edb" x="102.963988" y="30.697012" style="fill: #0000ff; stroke: #0000ff; stroke-width: 0.5"/>
     <use xlink:href="#m1a416e2edb" x="139.979989" y="40.240326" style="fill: #0000ff; stroke: #0000ff; stroke-width: 0.5"/>
     <use xlink:href="#m1a416e2edb" x="176.995991" y="49.800487" style="fill: #0000ff; stroke: #0000ff; stroke-width: 0.5"/>
     <use xlink:href="#m1a416e2edb" x="214.011992" y="59.368435" style="fill: #0000ff; stroke: #0000ff; stroke-width: 0.5"/>
     <use xlink:href="#m1a416e2edb" x="251.027994" y="68.940428" style="fill: #0000ff; stroke: #0000ff; stroke-width: 0.5"/>
     <use xlink:href="#m1a416e2edb" x="288.043995" y="78.514697" style="fill: #0000ff; stroke: #0000ff; stroke-width: 0.5"/>
     <use xlink:href="#m1a416e2edb" x="325.059996" y="88.090324" style="fill: #0000ff; stroke: #0000ff; stroke-width: 0.5"/>
     <use xlink:href="#m1a416e2edb" x="362.075998" y="97.666795" style="fill: #0000ff; stroke: #0000ff; stroke-width: 0.5"/>
     <use xlink:href="#m1a416e2edb" x="399.091999" y="107.243808" style="fill: #0000ff; stroke: #0000ff; stroke-width: 0.5"/>
    </g>
   </g>
   <g id="line2d_2">
    <path d="M 65.947986 21.51907 
L 102.963988 31.323438 
L 139.979989 41.165937 
L 176.995991 51.022258 
L 214.011992 60.884442 
L 251.027994 70.749394 
L 288.043995 80.615746 
L 325.059996 90.482838 
L 362.075998 100.350329 
L 399.091999 110.21804 
" clip-path="url(#p0e6b8c910f)" style="fill: none; stroke: #008000; stroke-linecap: square"/>
    <defs>
     <path id="ma5049325d8" d="M 0 3 
C 0.795609 3 1.55874 2.683901 2.12132 2.12132 
C 2.683901 1.55874 3 0.795609 3 0 
C 3 -0.795609 2.683901 -1.55874 2.12132 -2.12132 
C 1.55874 -2.683901 0.795609 -3 0 -3 
C -0.795609 -3 -1.55874 -2.683901 -2.12132 -2.12132 
C -2.683901 -1.55874 -3 -0.795609 -3 0 
C -3 0.795609 -2.683901 1.55874 -2.12132 2.12132 
C -1.55874 2.683901 -0.795609 3 0 3 
z
" style="stroke: #000000; stroke-width: 0.5"/>
    </defs>
    <g clip-path="url(#p0e6b8c910f)">
     <use xlink:href="#ma5049325d8" x="65.947986" y="21.51907" style="fill: #008000; stroke: #000000; stroke-width: 0.5"/>
     <use xlink:href="#ma5049325d8" x="102.963988" y="31.323438" style="fill: #008000; stroke: #000000; stroke-width: 0.5"/>
     <use xlink:href="#ma5049325d8" x="139.979989" y="41.165937" style="fill: #008000; stroke: #000000; stroke-width: 0.5"/>
     <use xlink:href="#ma5049325d8" x="176.995991" y="51.022258" style="fill: #008000; stroke: #000000; stroke-width: 0.5"/>
     <use xlink:href="#ma5049325d8" x="214.011992" y="60.884442" style="fill: #008000; stroke: #000000; stroke-width: 0.5"/>
     <use xlink:href="#ma5049325d8" x="251.027994" y="70.749394" style="fill: #008000; stroke: #000000; stroke-width: 0.5"/>
     <use xlink:href="#ma5049325d8" x="288.043995" y="80.615746" style="fill: #008000; stroke: #000000; stroke-width: 0.5"/>
     <use xlink:href="#ma5049325d8" x="325.059996" y="90.482838" style="fill: #008000; stroke: #000000; stroke-width: 0.5"/>
     <use xlink:href="#ma5049325d8" x="362.075998" y="100.350329" style="fill: #008000; stroke: #000000; stroke-width: 0.5"/>
     <use xlink:href="#ma5049325d8" x="399.091999" y="110.21804" style="fill: #008000; stroke: #000000; stroke-width: 0.5"/>
    </g>
   </g>
   <g id="line2d_3">
    <path d="M 65.947986 21.439459 
L 102.963988 30.846146 
L 139.979989 40.323032 
L 176.995991 49.831618 
L 214.011992 59.358132 
L 251.027994 68.896141 
L 288.043995 78.442121 
L 325.059996 87.993927 
L 362.075998 97.550153 
L 399.091999 107.109822 
" clip-path="url(#p0e6b8c910f)" style="fill: none; stroke: #ff0000; stroke-linecap: square"/>
    <defs>
     <path id="m2a80e40201" d="M 0 -3 
L -3 3 
L 3 3 
z
" style="stroke: #000000; stroke-width: 0.5; stroke-linejoin: miter"/>
    </defs>
    <g clip-path="url(#p0e6b8c910f)">
     <use xlink:href="#m2a80e40201" x="65.947986" y="21.439459" style="fill: #ff0000; stroke: #000000; stroke-width: 0.5; stroke-linejoin: miter"/>
     <use xlink:href="#m2a80e40201" x="102.963988" y="30.846146" style="fill: #ff0000; stroke: #000000; stroke-width: 0.5; stroke-linejoin: miter"/>
     <use xlink:href="#m2a80e40201" x="139.979989" y="40.323032" style="fill: #ff0000; stroke: #000000; stroke-width: 0.5; stroke-linejoin: miter"/>
     <use xlink:href="#m2a80e40201" x="176.995991" y="49.831618" style="fill: #ff0000; stroke: #000000; stroke-width: 0.5; stroke-linejoin: miter"/>
     <use xlink:href="#m2a80e40201" x="214.011992" y="59.358132" style="fill: #ff0000; stroke: #000000; stroke-width: 0.5; stroke-linejoin: miter"/>
     <use xlink:href="#m2a80e40201" x="251.027994" y="68.896141" style="fill: #ff0000; stroke: #000000; stroke-width: 0.5; stroke-linejoin: miter"/>
     <use xlink:href="#m2a80e40201" x="288.043995" y="78.442121" style="fill: #ff0000; stroke: #000000; stroke-width: 0.5; stroke-linejoin: miter"/>
     <use xlink:href="#m2a80e40201" x="325.059996" y="87.993927" style="fill: #ff0000; stroke: #000000; stroke-width: 0.5; stroke-linejoin: miter"/>
     <use xlink:href="#m2a80e40201" x="362.075998" y="97.550153" style="fill: #ff0000; stroke: #000000; stroke-width: 0.5; stroke-linejoin: miter"/>
     <use xlink:href="#m2a80e40201" x="399.091999" y="107.109822" style="fill: #ff0000; stroke: #000000; stroke-width: 0.5; stroke-linejoin: miter"/>
    </g>
   </g>
   <g id="line2d_4">
    <path d="M 65.947986 21.51907 
L 102.963988 31.307882 
L 139.979989 41.128813 
L 176.995991 50.935375 
L 214.011992 60.797517 
L 251.027994 70.497241 
L 288.043995 80.291553 
L 325.059996 90.049478 
L 362.075998 99.777958 
L 399.091999 109.975961 
" clip-path="url(#p0e6b8c910f)" style="fill: none; stroke: #00bfbf; stroke-linecap: square"/>
    <defs>
     <path id="m2aaaaf20b4" d="M -0 4.242641 
L 4.242641 0 
L 0 -4.242641 
L -4.242641 -0 
z
" style="stroke: #000000; stroke-width: 0.5; stroke-linejoin: miter"/>
    </defs>
    <g clip-path="url(#p0e6b8c910f)">
     <use xlink:href="#m2aaaaf20b4" x="65.947986" y="21.51907" style="fill: #00bfbf; stroke: #000000; stroke-width: 0.5; stroke-linejoin: miter"/>
     <use xlink:href="#m2aaaaf20b4" x="102.963988" y="31.307882" style="fill: #00bfbf; stroke: #000000; stroke-width: 0.5; stroke-linejoin: miter"/>
     <use xlink:href="#m2aaaaf20b4" x="139.979989" y="41.128813" style="fill: #00bfbf; stroke: #000000; stroke-width: 0.5; stroke-linejoin: miter"/>
     <use xlink:href="#m2aaaaf20b4" x="176.995991" y="50.935375" style="fill: #00bfbf; stroke: #000000; stroke-width: 0.5; stroke-linejoin: miter"/>
     <use xlink:href="#m2aaaaf20b4" x="214.011992" y="60.797517" style="fill: #00bfbf; stroke: #000000; stroke-width: 0.5; stroke-linejoin: miter"/>
     <use xlink:href="#m2aaaaf20b4" x="251.027994" y="70.497241" style="fill: #00bfbf; stroke: #000000; stroke-width: 0.5; stroke-linejoin: miter"/>
     <use xlink:href="#m2aaaaf20b4" x="288.043995" y="80.291553" style="fill: #00bfbf; stroke: #000000; stroke-width: 0.5; stroke-linejoin: miter"/>
     <use xlink:href="#m2aaaaf20b4" x="325.059996" y="90.049478" style="fill: #00bfbf; stroke: #000000; stroke-width: 0.5; stroke-linejoin: miter"/>
     <use xlink:href="#m2aaaaf20b4" x="362.075998" y="99.777958" style="fill: #00bfbf; stroke: #000000; stroke-width: 0.5; stroke-linejoin: miter"/>
     <use xlink:href="#m2aaaaf20b4" x="399.091999" y="109.975961" style="fill: #00bfbf; stroke: #000000; stroke-width: 0.5; stroke-linejoin: miter"/>
    </g>
   </g>
   <g id="patch_3">
    <path d="M 47.439986 121.11987 
L 47.439986 11.378278 
" style="fill: none; stroke: #000000; stroke-width: 0.8; stroke-linejoin: miter; stroke-linecap: square"/>
   </g>
   <g id="patch_4">
    <path d="M 47.439986 121.11987 
L 417.6 121.11987 
" style="fill: none; stroke: #000000; stroke-width: 0.8; stroke-linejoin: miter; stroke-linecap: square"/>
   </g>
   <g id="matplotlib.axis_1">
    <g id="xtick_1">
     <g id="line2d_5">
      <path d="M 121.471989 121.11987 
L 121.471989 11.378278 
" clip-path="url(#p0e6b8c910f)" style="fill: none; stroke: #000000; stroke-opacity: 0; stroke-width: 0.5; stroke-linecap: square"/>
     </g>
     <g id="line2d_6">
      <defs>
       <path id="m4af6a6387d" d="M 0 0 
L 0 -4 
" style="stroke: #000000; stroke-width: 0.8"/>
      </defs>
      <g>
       <use xlink:href="#m4af6a6387d" x="121.471989" y="121.11987" style="stroke: #000000; stroke-width: 0.8"/>
      </g>
     </g>
    </g>
    <g id="xtick_2">
     <g id="line2d_7">
      <path d="M 214.011992 121.11987 
L 214.011992 11.378278 
" clip-path="url(#p0e6b8c910f)" style="fill: none; stroke: #000000; stroke-opacity: 0; stroke-width: 0.5; stroke-linecap: square"/>
     </g>
     <g id="line2d_8">
      <g>
       <use xlink:href="#m4af6a6387d" x="214.011992" y="121.11987" style="stroke: #000000; stroke-width: 0.8"/>
      </g>
     </g>
    </g>
    <g id="xtick_3">
     <g id="line2d_9">
      <path d="M 306.551996 121.11987 
L 306.551996 11.378278 
" clip-path="url(#p0e6b8c910f)" style="fill: none; stroke: #000000; stroke-opacity: 0; stroke-width: 0.5; stroke-linecap: square"/>
     </g>
     <g id="line2d_10">
      <g>
       <use xlink:href="#m4af6a6387d" x="306.551996" y="121.11987" style="stroke: #000000; stroke-width: 0.8"/>
      </g>
     </g>
    </g>
    <g id="xtick_4">
     <g id="line2d_11">
      <path d="M 399.091999 121.11987 
L 399.091999 11.378278 
" clip-path="url(#p0e6b8c910f)" style="fill: none; stroke: #000000; stroke-opacity: 0; stroke-width: 0.5; stroke-linecap: square"/>
     </g>
     <g id="line2d_12">
      <g>
       <use xlink:href="#m4af6a6387d" x="399.091999" y="121.11987" style="stroke: #000000; stroke-width: 0.8"/>
      </g>
     </g>
    </g>
   </g>
   <g id="matplotlib.axis_2">
    <g id="ytick_1">
     <g id="line2d_13">
      <path d="M 47.439986 121.11987 
L 417.6 121.11987 
" clip-path="url(#p0e6b8c910f)" style="fill: none; stroke: #000000; stroke-opacity: 0; stroke-width: 0.5; stroke-linecap: square"/>
     </g>
     <g id="line2d_14">
      <defs>
       <path id="m69f7822092" d="M 0 0 
L 4 0 
" style="stroke: #000000; stroke-width: 0.8"/>
      </defs>
      <g>
       <use xlink:href="#m69f7822092" x="47.439986" y="121.11987" style="stroke: #000000; stroke-width: 0.8"/>
      </g>
     </g>
     <g id="text_1">
      <!-- $\mathdefault{−12}$ -->
      <g transform="translate(27.057086 123.594576) scale(0.09 -0.09)">
       <defs>
        <path id="CMSY10-1" d="M 4217 1472 
C 4326 1472 4441 1472 4441 1600 
C 4441 1728 4326 1728 4217 1728 
L 755 1728 
C 646 1728 531 1728 531 1600 
C 531 1472 646 1472 755 1472 
L 4217 1472 
z
" transform="scale(0.015625)"/>
        <path id="CMR17-33" d="M 1702 4083 
C 1702 4217 1696 4224 1606 4224 
C 1356 3927 979 3833 620 3820 
C 601 3820 569 3820 563 3808 
C 556 3795 556 3782 556 3648 
C 755 3648 1088 3686 1344 3839 
L 1344 467 
C 1344 243 1331 166 780 166 
L 588 166 
L 588 0 
C 896 6 1216 12 1523 12 
C 1830 12 2150 6 2457 0 
L 2457 166 
L 2265 166 
C 1715 166 1702 236 1702 467 
L 1702 4083 
z
" transform="scale(0.015625)"/>
        <path id="CMR17-34" d="M 2668 990 
L 2553 990 
C 2489 537 2438 460 2412 422 
C 2380 371 1920 371 1830 371 
L 601 371 
C 832 620 1280 1073 1824 1596 
C 2214 1966 2668 2400 2668 3033 
C 2668 3788 2067 4224 1395 4224 
C 691 4224 262 3603 262 3027 
C 262 2777 448 2745 524 2745 
C 588 2745 780 2783 780 3007 
C 780 3206 614 3264 524 3264 
C 486 3264 448 3257 422 3244 
C 544 3788 915 4057 1305 4057 
C 1862 4057 2227 3616 2227 3033 
C 2227 2477 1900 1998 1536 1583 
L 262 147 
L 262 0 
L 2515 0 
L 2668 990 
z
" transform="scale(0.015625)"/>
       </defs>
       <use xlink:href="#CMSY10-1" transform="scale(0.996264)"/>
       <use xlink:href="#CMR17-33" transform="translate(77.487468 0) scale(0.996264)"/>
       <use xlink:href="#CMR17-34" transform="translate(123.177945 0) scale(0.996264)"/>
      </g>
     </g>
    </g>
    <g id="ytick_2">
     <g id="line2d_15">
      <path d="M 47.439986 102.829605 
L 417.6 102.829605 
" clip-path="url(#p0e6b8c910f)" style="fill: none; stroke: #000000; stroke-opacity: 0; stroke-width: 0.5; stroke-linecap: square"/>
     </g>
     <g id="line2d_16">
      <g>
       <use xlink:href="#m69f7822092" x="47.439986" y="102.829605" style="stroke: #000000; stroke-width: 0.8"/>
      </g>
     </g>
     <g id="text_2">
      <!-- $\mathdefault{−10}$ -->
      <g transform="translate(27.057086 105.304311) scale(0.09 -0.09)">
       <defs>
        <path id="CMR17-32" d="M 2688 2038 
C 2688 2430 2681 3099 2412 3613 
C 2176 4063 1798 4224 1465 4224 
C 1158 4224 768 4082 524 3620 
C 268 3137 243 2539 243 2038 
C 243 1671 249 1112 448 623 
C 723 -39 1216 -128 1465 -128 
C 1760 -128 2208 -7 2470 604 
C 2662 1048 2688 1568 2688 2038 
z
M 1465 -26 
C 1056 -26 812 328 723 816 
C 652 1196 652 1749 652 2109 
C 652 2604 652 3015 736 3407 
C 857 3954 1216 4121 1465 4121 
C 1728 4121 2067 3947 2188 3420 
C 2272 3054 2278 2623 2278 2109 
C 2278 1691 2278 1176 2201 797 
C 2067 96 1689 -26 1465 -26 
z
" transform="scale(0.015625)"/>
       </defs>
       <use xlink:href="#CMSY10-1" transform="scale(0.996264)"/>
       <use xlink:href="#CMR17-33" transform="translate(77.487468 0) scale(0.996264)"/>
       <use xlink:href="#CMR17-32" transform="translate(123.177945 0) scale(0.996264)"/>
      </g>
     </g>
    </g>
    <g id="ytick_3">
     <g id="line2d_17">
      <path d="M 47.439986 84.53934 
L 417.6 84.53934 
" clip-path="url(#p0e6b8c910f)" style="fill: none; stroke: #000000; stroke-opacity: 0; stroke-width: 0.5; stroke-linecap: square"/>
     </g>
     <g id="line2d_18">
      <g>
       <use xlink:href="#m69f7822092" x="47.439986" y="84.53934" style="stroke: #000000; stroke-width: 0.8"/>
      </g>
     </g>
     <g id="text_3">
      <!-- $\mathdefault{−8}$ -->
      <g transform="translate(31.664776 87.014045) scale(0.09 -0.09)">
       <defs>
        <path id="CMR17-3a" d="M 1740 2289 
C 2144 2494 2553 2803 2553 3298 
C 2553 3884 1990 4224 1472 4224 
C 889 4224 377 3800 377 3215 
C 377 3054 416 2777 665 2533 
C 729 2469 998 2276 1171 2154 
C 883 2006 211 1652 211 945 
C 211 282 838 -128 1459 -128 
C 2144 -128 2720 366 2720 1022 
C 2720 1607 2329 1877 2073 2051 
L 1740 2289 
z
M 902 2855 
C 851 2887 595 3086 595 3388 
C 595 3781 998 4076 1459 4076 
C 1964 4076 2336 3716 2336 3298 
C 2336 2700 1670 2359 1638 2359 
C 1632 2359 1625 2359 1574 2398 
L 902 2855 
z
M 2080 1536 
C 2176 1466 2483 1253 2483 861 
C 2483 385 2009 25 1472 25 
C 889 25 448 443 448 951 
C 448 1459 838 1884 1280 2083 
L 2080 1536 
z
" transform="scale(0.015625)"/>
       </defs>
       <use xlink:href="#CMSY10-1" transform="scale(0.996264)"/>
       <use xlink:href="#CMR17-3a" transform="translate(77.487468 0) scale(0.996264)"/>
      </g>
     </g>
    </g>
    <g id="ytick_4">
     <g id="line2d_19">
      <path d="M 47.439986 66.249074 
L 417.6 66.249074 
" clip-path="url(#p0e6b8c910f)" style="fill: none; stroke: #000000; stroke-opacity: 0; stroke-width: 0.5; stroke-linecap: square"/>
     </g>
     <g id="line2d_20">
      <g>
       <use xlink:href="#m69f7822092" x="47.439986" y="66.249074" style="stroke: #000000; stroke-width: 0.8"/>
      </g>
     </g>
     <g id="text_4">
      <!-- $\mathdefault{−6}$ -->
      <g transform="translate(31.664776 68.72378) scale(0.09 -0.09)">
       <defs>
        <path id="CMR17-38" d="M 678 2198 
C 678 3712 1395 4076 1811 4076 
C 1945 4076 2272 4049 2400 3782 
C 2297 3782 2105 3782 2105 3558 
C 2105 3385 2246 3328 2336 3328 
C 2393 3328 2566 3353 2566 3571 
C 2566 3987 2246 4224 1804 4224 
C 1043 4224 243 3411 243 2011 
C 243 257 966 -128 1478 -128 
C 2099 -128 2688 431 2688 1295 
C 2688 2101 2169 2688 1516 2688 
C 1126 2688 838 2430 678 1979 
L 678 2198 
z
M 1478 25 
C 691 25 691 1212 691 1450 
C 691 1914 908 2585 1504 2585 
C 1612 2585 1926 2585 2137 2140 
C 2252 1889 2252 1624 2252 1302 
C 2252 954 2252 696 2118 438 
C 1977 173 1772 25 1478 25 
z
" transform="scale(0.015625)"/>
       </defs>
       <use xlink:href="#CMSY10-1" transform="scale(0.996264)"/>
       <use xlink:href="#CMR17-38" transform="translate(77.487468 0) scale(0.996264)"/>
      </g>
     </g>
    </g>
    <g id="ytick_5">
     <g id="line2d_21">
      <path d="M 47.439986 47.958809 
L 417.6 47.958809 
" clip-path="url(#p0e6b8c910f)" style="fill: none; stroke: #000000; stroke-opacity: 0; stroke-width: 0.5; stroke-linecap: square"/>
     </g>
     <g id="line2d_22">
      <g>
       <use xlink:href="#m69f7822092" x="47.439986" y="47.958809" style="stroke: #000000; stroke-width: 0.8"/>
      </g>
     </g>
     <g id="text_5">
      <!-- $\mathdefault{−4}$ -->
      <g transform="translate(31.664776 50.433515) scale(0.09 -0.09)">
       <defs>
        <path id="CMR17-36" d="M 2150 4147 
C 2150 4281 2144 4288 2028 4288 
L 128 1254 
L 128 1088 
L 1779 1088 
L 1779 460 
C 1779 230 1766 166 1318 166 
L 1196 166 
L 1196 0 
C 1401 12 1747 12 1964 12 
C 2182 12 2528 12 2732 0 
L 2732 166 
L 2611 166 
C 2163 166 2150 230 2150 460 
L 2150 1088 
L 2803 1088 
L 2803 1254 
L 2150 1254 
L 2150 4147 
z
M 1798 3723 
L 1798 1254 
L 256 1254 
L 1798 3723 
z
" transform="scale(0.015625)"/>
       </defs>
       <use xlink:href="#CMSY10-1" transform="scale(0.996264)"/>
       <use xlink:href="#CMR17-36" transform="translate(77.487468 0) scale(0.996264)"/>
      </g>
     </g>
    </g>
    <g id="ytick_6">
     <g id="line2d_23">
      <path d="M 47.439986 29.668544 
L 417.6 29.668544 
" clip-path="url(#p0e6b8c910f)" style="fill: none; stroke: #000000; stroke-opacity: 0; stroke-width: 0.5; stroke-linecap: square"/>
     </g>
     <g id="line2d_24">
      <g>
       <use xlink:href="#m69f7822092" x="47.439986" y="29.668544" style="stroke: #000000; stroke-width: 0.8"/>
      </g>
     </g>
     <g id="text_6">
      <!-- $\mathdefault{−2}$ -->
      <g transform="translate(31.664776 32.143249) scale(0.09 -0.09)">
       <use xlink:href="#CMSY10-1" transform="scale(0.996264)"/>
       <use xlink:href="#CMR17-34" transform="translate(77.487468 0) scale(0.996264)"/>
      </g>
     </g>
    </g>
    <g id="ytick_7">
     <g id="line2d_25">
      <path d="M 47.439986 11.378278 
L 417.6 11.378278 
" clip-path="url(#p0e6b8c910f)" style="fill: none; stroke: #000000; stroke-opacity: 0; stroke-width: 0.5; stroke-linecap: square"/>
     </g>
     <g id="line2d_26">
      <g>
       <use xlink:href="#m69f7822092" x="47.439986" y="11.378278" style="stroke: #000000; stroke-width: 0.8"/>
      </g>
     </g>
     <g id="text_7">
      <!-- $\mathdefault{0}$ -->
      <g transform="translate(38.832295 13.852984) scale(0.09 -0.09)">
       <use xlink:href="#CMR17-32" transform="scale(0.996264)"/>
      </g>
     </g>
    </g>
    <g id="ytick_8">
     <g id="line2d_27">
      <path d="M 47.439986 116.547304 
L 417.6 116.547304 
" clip-path="url(#p0e6b8c910f)" style="fill: none; stroke: #000000; stroke-opacity: 0; stroke-width: 0.5; stroke-linecap: square"/>
     </g>
     <g id="line2d_28">
      <defs>
       <path id="mccf020aafd" d="M 0 0 
L 2 0 
" style="stroke: #000000; stroke-width: 0.6"/>
      </defs>
      <g>
       <use xlink:href="#mccf020aafd" x="47.439986" y="116.547304" style="stroke: #000000; stroke-width: 0.6"/>
      </g>
     </g>
    </g>
    <g id="ytick_9">
     <g id="line2d_29">
      <path d="M 47.439986 111.974738 
L 417.6 111.974738 
" clip-path="url(#p0e6b8c910f)" style="fill: none; stroke: #000000; stroke-opacity: 0; stroke-width: 0.5; stroke-linecap: square"/>
     </g>
     <g id="line2d_30">
      <g>
       <use xlink:href="#mccf020aafd" x="47.439986" y="111.974738" style="stroke: #000000; stroke-width: 0.6"/>
      </g>
     </g>
    </g>
    <g id="ytick_10">
     <g id="line2d_31">
      <path d="M 47.439986 107.402171 
L 417.6 107.402171 
" clip-path="url(#p0e6b8c910f)" style="fill: none; stroke: #000000; stroke-opacity: 0; stroke-width: 0.5; stroke-linecap: square"/>
     </g>
     <g id="line2d_32">
      <g>
       <use xlink:href="#mccf020aafd" x="47.439986" y="107.402171" style="stroke: #000000; stroke-width: 0.6"/>
      </g>
     </g>
    </g>
    <g id="ytick_11">
     <g id="line2d_33">
      <path d="M 47.439986 98.257039 
L 417.6 98.257039 
" clip-path="url(#p0e6b8c910f)" style="fill: none; stroke: #000000; stroke-opacity: 0; stroke-width: 0.5; stroke-linecap: square"/>
     </g>
     <g id="line2d_34">
      <g>
       <use xlink:href="#mccf020aafd" x="47.439986" y="98.257039" style="stroke: #000000; stroke-width: 0.6"/>
      </g>
     </g>
    </g>
    <g id="ytick_12">
     <g id="line2d_35">
      <path d="M 47.439986 93.684472 
L 417.6 93.684472 
" clip-path="url(#p0e6b8c910f)" style="fill: none; stroke: #000000; stroke-opacity: 0; stroke-width: 0.5; stroke-linecap: square"/>
     </g>
     <g id="line2d_36">
      <g>
       <use xlink:href="#mccf020aafd" x="47.439986" y="93.684472" style="stroke: #000000; stroke-width: 0.6"/>
      </g>
     </g>
    </g>
    <g id="ytick_13">
     <g id="line2d_37">
      <path d="M 47.439986 89.111906 
L 417.6 89.111906 
" clip-path="url(#p0e6b8c910f)" style="fill: none; stroke: #000000; stroke-opacity: 0; stroke-width: 0.5; stroke-linecap: square"/>
     </g>
     <g id="line2d_38">
      <g>
       <use xlink:href="#mccf020aafd" x="47.439986" y="89.111906" style="stroke: #000000; stroke-width: 0.6"/>
      </g>
     </g>
    </g>
    <g id="ytick_14">
     <g id="line2d_39">
      <path d="M 47.439986 79.966773 
L 417.6 79.966773 
" clip-path="url(#p0e6b8c910f)" style="fill: none; stroke: #000000; stroke-opacity: 0; stroke-width: 0.5; stroke-linecap: square"/>
     </g>
     <g id="line2d_40">
      <g>
       <use xlink:href="#mccf020aafd" x="47.439986" y="79.966773" style="stroke: #000000; stroke-width: 0.6"/>
      </g>
     </g>
    </g>
    <g id="ytick_15">
     <g id="line2d_41">
      <path d="M 47.439986 75.394207 
L 417.6 75.394207 
" clip-path="url(#p0e6b8c910f)" style="fill: none; stroke: #000000; stroke-opacity: 0; stroke-width: 0.5; stroke-linecap: square"/>
     </g>
     <g id="line2d_42">
      <g>
       <use xlink:href="#mccf020aafd" x="47.439986" y="75.394207" style="stroke: #000000; stroke-width: 0.6"/>
      </g>
     </g>
    </g>
    <g id="ytick_16">
     <g id="line2d_43">
      <path d="M 47.439986 70.821641 
L 417.6 70.821641 
" clip-path="url(#p0e6b8c910f)" style="fill: none; stroke: #000000; stroke-opacity: 0; stroke-width: 0.5; stroke-linecap: square"/>
     </g>
     <g id="line2d_44">
      <g>
       <use xlink:href="#mccf020aafd" x="47.439986" y="70.821641" style="stroke: #000000; stroke-width: 0.6"/>
      </g>
     </g>
    </g>
    <g id="ytick_17">
     <g id="line2d_45">
      <path d="M 47.439986 61.676508 
L 417.6 61.676508 
" clip-path="url(#p0e6b8c910f)" style="fill: none; stroke: #000000; stroke-opacity: 0; stroke-width: 0.5; stroke-linecap: square"/>
     </g>
     <g id="line2d_46">
      <g>
       <use xlink:href="#mccf020aafd" x="47.439986" y="61.676508" style="stroke: #000000; stroke-width: 0.6"/>
      </g>
     </g>
    </g>
    <g id="ytick_18">
     <g id="line2d_47">
      <path d="M 47.439986 57.103942 
L 417.6 57.103942 
" clip-path="url(#p0e6b8c910f)" style="fill: none; stroke: #000000; stroke-opacity: 0; stroke-width: 0.5; stroke-linecap: square"/>
     </g>
     <g id="line2d_48">
      <g>
       <use xlink:href="#mccf020aafd" x="47.439986" y="57.103942" style="stroke: #000000; stroke-width: 0.6"/>
      </g>
     </g>
    </g>
    <g id="ytick_19">
     <g id="line2d_49">
      <path d="M 47.439986 52.531375 
L 417.6 52.531375 
" clip-path="url(#p0e6b8c910f)" style="fill: none; stroke: #000000; stroke-opacity: 0; stroke-width: 0.5; stroke-linecap: square"/>
     </g>
     <g id="line2d_50">
      <g>
       <use xlink:href="#mccf020aafd" x="47.439986" y="52.531375" style="stroke: #000000; stroke-width: 0.6"/>
      </g>
     </g>
    </g>
    <g id="ytick_20">
     <g id="line2d_51">
      <path d="M 47.439986 43.386243 
L 417.6 43.386243 
" clip-path="url(#p0e6b8c910f)" style="fill: none; stroke: #000000; stroke-opacity: 0; stroke-width: 0.5; stroke-linecap: square"/>
     </g>
     <g id="line2d_52">
      <g>
       <use xlink:href="#mccf020aafd" x="47.439986" y="43.386243" style="stroke: #000000; stroke-width: 0.6"/>
      </g>
     </g>
    </g>
    <g id="ytick_21">
     <g id="line2d_53">
      <path d="M 47.439986 38.813676 
L 417.6 38.813676 
" clip-path="url(#p0e6b8c910f)" style="fill: none; stroke: #000000; stroke-opacity: 0; stroke-width: 0.5; stroke-linecap: square"/>
     </g>
     <g id="line2d_54">
      <g>
       <use xlink:href="#mccf020aafd" x="47.439986" y="38.813676" style="stroke: #000000; stroke-width: 0.6"/>
      </g>
     </g>
    </g>
    <g id="ytick_22">
     <g id="line2d_55">
      <path d="M 47.439986 34.24111 
L 417.6 34.24111 
" clip-path="url(#p0e6b8c910f)" style="fill: none; stroke: #000000; stroke-opacity: 0; stroke-width: 0.5; stroke-linecap: square"/>
     </g>
     <g id="line2d_56">
      <g>
       <use xlink:href="#mccf020aafd" x="47.439986" y="34.24111" style="stroke: #000000; stroke-width: 0.6"/>
      </g>
     </g>
    </g>
    <g id="ytick_23">
     <g id="line2d_57">
      <path d="M 47.439986 25.095977 
L 417.6 25.095977 
" clip-path="url(#p0e6b8c910f)" style="fill: none; stroke: #000000; stroke-opacity: 0; stroke-width: 0.5; stroke-linecap: square"/>
     </g>
     <g id="line2d_58">
      <g>
       <use xlink:href="#mccf020aafd" x="47.439986" y="25.095977" style="stroke: #000000; stroke-width: 0.6"/>
      </g>
     </g>
    </g>
    <g id="ytick_24">
     <g id="line2d_59">
      <path d="M 47.439986 20.523411 
L 417.6 20.523411 
" clip-path="url(#p0e6b8c910f)" style="fill: none; stroke: #000000; stroke-opacity: 0; stroke-width: 0.5; stroke-linecap: square"/>
     </g>
     <g id="line2d_60">
      <g>
       <use xlink:href="#mccf020aafd" x="47.439986" y="20.523411" style="stroke: #000000; stroke-width: 0.6"/>
      </g>
     </g>
    </g>
    <g id="ytick_25">
     <g id="line2d_61">
      <path d="M 47.439986 15.950845 
L 417.6 15.950845 
" clip-path="url(#p0e6b8c910f)" style="fill: none; stroke: #000000; stroke-opacity: 0; stroke-width: 0.5; stroke-linecap: square"/>
     </g>
     <g id="line2d_62">
      <g>
       <use xlink:href="#mccf020aafd" x="47.439986" y="15.950845" style="stroke: #000000; stroke-width: 0.6"/>
      </g>
     </g>
    </g>
    <g id="text_8">
     <!-- Energy (Ha) -->
     <g transform="translate(21.16422 94.56269) rotate(-90) scale(0.1 -0.1)">
      <defs>
       <path id="CenturySchL-Roma-89" d="M 4032 4608 
L 185 4608 
L 185 4307 
L 300 4307 
C 819 4307 876 4275 876 4008 
L 876 3824 
L 876 787 
L 876 601 
C 876 332 819 300 300 300 
L 185 300 
L 185 0 
L 4115 0 
L 4243 1708 
L 3961 1708 
C 3878 1260 3731 864 3577 678 
C 3379 422 3014 300 2476 300 
L 2054 300 
C 1862 300 1702 339 1644 396 
C 1600 435 1593 473 1593 608 
L 1593 2240 
L 1721 2240 
C 2112 2240 2272 2201 2400 2067 
C 2566 1900 2630 1696 2643 1318 
L 2944 1318 
L 2944 3411 
L 2643 3411 
C 2611 2788 2355 2540 1747 2540 
L 1593 2540 
L 1593 3989 
C 1593 4262 1651 4307 1996 4307 
L 2329 4307 
C 2892 4307 3168 4249 3385 4072 
C 3597 3906 3750 3551 3846 2979 
L 4121 2979 
L 4032 4608 
z
" transform="scale(0.015625)"/>
       <path id="CenturySchL-Roma-b3" d="M 1280 3008 
L 172 2944 
L 172 2668 
L 403 2668 
C 640 2668 678 2623 678 2344 
L 678 794 
L 678 535 
C 678 275 608 230 198 230 
L 172 230 
L 172 0 
L 1792 0 
L 1792 230 
L 1766 230 
C 1350 230 1280 275 1280 535 
L 1280 794 
L 1280 1469 
C 1280 1786 1324 2078 1395 2227 
C 1529 2483 1817 2681 2092 2681 
C 2259 2681 2451 2585 2547 2458 
C 2643 2323 2688 2126 2688 1819 
L 2688 785 
L 2688 530 
C 2688 275 2617 230 2201 230 
L 2176 230 
L 2176 0 
L 3795 0 
L 3795 230 
L 3769 230 
C 3360 230 3289 275 3289 530 
L 3289 785 
L 3289 1787 
C 3289 2247 3270 2362 3155 2579 
C 2995 2886 2668 3072 2291 3072 
C 1881 3072 1561 2879 1280 2458 
L 1280 3008 
z
" transform="scale(0.015625)"/>
       <path id="CenturySchL-Roma-aa" d="M 2976 1408 
C 2982 2384 2438 3072 1657 3072 
C 838 3072 224 2351 224 1375 
C 224 479 806 -128 1670 -128 
C 2278 -128 2713 172 2976 780 
L 2752 902 
C 2489 409 2220 217 1792 217 
C 1465 217 1228 358 1062 639 
C 947 831 896 1055 902 1408 
L 2976 1408 
z
M 908 1683 
C 908 1886 934 2030 998 2213 
C 1132 2606 1337 2796 1644 2796 
C 2035 2796 2291 2449 2291 1925 
C 2291 1735 2233 1683 2028 1683 
L 908 1683 
z
" transform="scale(0.015625)"/>
       <path id="CenturySchL-Roma-b7" d="M 1267 3008 
L 134 2899 
L 134 2624 
L 396 2624 
C 633 2624 672 2579 672 2305 
L 672 784 
L 672 529 
C 672 274 601 230 185 230 
L 160 230 
L 160 0 
L 1868 0 
L 1868 230 
L 1747 230 
C 1337 230 1267 274 1267 529 
L 1267 784 
L 1267 847 
C 1267 1325 1356 1809 1516 2172 
C 1670 2528 1888 2726 2156 2758 
C 2067 2656 2041 2592 2041 2471 
C 2041 2267 2188 2121 2393 2121 
C 2624 2121 2784 2293 2784 2554 
C 2784 2860 2566 3072 2227 3072 
C 1824 3072 1472 2739 1267 2178 
L 1267 3008 
z
" transform="scale(0.015625)"/>
       <path id="CenturySchL-Roma-ac" d="M 1254 486 
C 902 492 883 499 806 543 
C 761 569 729 639 729 709 
C 729 900 902 982 1331 995 
C 1939 1008 2035 1021 2246 1116 
C 2630 1288 2848 1619 2848 2039 
C 2848 2294 2790 2453 2611 2663 
C 2720 2777 2777 2816 2828 2816 
C 2860 2816 2880 2797 2892 2726 
C 2918 2574 3020 2491 3180 2491 
C 3341 2491 3469 2625 3469 2797 
C 3469 3014 3296 3168 3046 3168 
C 2841 3168 2726 3104 2432 2835 
C 2163 3007 1958 3072 1638 3072 
C 876 3072 377 2650 377 2015 
C 377 1641 582 1317 915 1165 
C 486 1070 307 879 307 530 
C 307 249 435 83 736 -20 
C 339 -160 147 -365 147 -628 
C 147 -1050 640 -1287 1497 -1287 
C 2566 -1287 3104 -948 3104 -276 
C 3104 44 2956 300 2720 396 
C 2553 460 2348 486 1907 486 
L 1254 486 
z
M 1632 2796 
C 2035 2796 2259 2517 2259 2028 
C 2259 1533 2016 1235 1606 1235 
C 1209 1235 960 1533 960 2009 
C 960 2511 1203 2796 1632 2796 
z
M 1574 -64 
C 2105 -64 2144 -64 2240 -77 
C 2496 -103 2656 -244 2656 -448 
C 2656 -813 2240 -1024 1523 -1024 
C 985 -1024 678 -864 678 -576 
C 678 -365 793 -224 1100 -64 
L 1574 -64 
z
" transform="scale(0.015625)"/>
       <path id="CenturySchL-Roma-be" d="M 1920 814 
L 1216 2478 
C 1190 2537 1177 2582 1177 2614 
C 1177 2731 1254 2776 1472 2776 
L 1606 2776 
L 1606 3008 
L 83 3008 
L 83 2776 
L 153 2776 
C 358 2776 473 2685 588 2426 
L 1632 37 
L 1523 -189 
C 1292 -681 992 -1024 787 -1024 
C 729 -1024 684 -999 684 -960 
C 684 -947 691 -927 697 -901 
C 716 -843 729 -785 729 -733 
C 729 -565 588 -442 403 -442 
C 179 -442 19 -610 19 -843 
C 19 -1127 268 -1338 601 -1338 
C 940 -1338 1228 -1172 1484 -824 
C 1683 -552 1811 -293 2092 426 
L 2822 2252 
C 2982 2647 3116 2776 3360 2776 
L 3398 2776 
L 3398 3008 
L 2118 3008 
L 2118 2776 
L 2220 2776 
C 2464 2776 2566 2705 2566 2537 
C 2566 2472 2547 2388 2502 2278 
L 1920 814 
z
" transform="scale(0.015625)"/>
       <path id="CenturySchL-Roma-f4" d="M 1785 4736 
C 1401 4499 1196 4332 979 4076 
C 492 3500 230 2764 230 1990 
C 230 1260 460 575 889 6 
C 1132 -302 1350 -494 1785 -762 
L 1785 -526 
C 1145 38 889 761 889 1990 
C 889 3219 1145 3935 1785 4499 
L 1785 4736 
z
" transform="scale(0.015625)"/>
       <path id="CenturySchL-Roma-8c" d="M 3737 2214 
L 3737 785 
L 3737 600 
C 3737 332 3680 300 3161 300 
L 3046 300 
L 3046 0 
L 5145 0 
L 5145 300 
L 5030 300 
C 4512 300 4454 332 4454 600 
L 4454 785 
L 4454 3822 
L 4454 4007 
C 4454 4275 4512 4307 5030 4307 
L 5145 4307 
L 5145 4608 
L 3072 4608 
L 3072 4307 
L 3161 4307 
C 3680 4307 3737 4275 3737 4007 
L 3737 3822 
L 3737 2560 
L 1593 2560 
L 1593 3822 
L 1593 4007 
C 1593 4275 1651 4307 2169 4307 
L 2291 4307 
L 2291 4608 
L 185 4608 
L 185 4307 
L 300 4307 
C 819 4307 876 4275 876 4007 
L 876 3822 
L 876 785 
L 876 600 
C 876 332 819 300 300 300 
L 185 300 
L 185 0 
L 2291 0 
L 2291 300 
L 2169 300 
C 1651 300 1593 332 1593 600 
L 1593 785 
L 1593 2214 
L 3737 2214 
z
" transform="scale(0.015625)"/>
       <path id="CenturySchL-Roma-a6" d="M 2892 2046 
C 2892 2454 2822 2661 2636 2815 
C 2425 2982 2112 3072 1702 3072 
C 985 3072 454 2732 454 2266 
C 454 2021 601 1865 825 1865 
C 1024 1865 1171 2001 1171 2195 
C 1171 2279 1139 2370 1075 2460 
C 1036 2505 1030 2525 1030 2544 
C 1030 2680 1292 2796 1600 2796 
C 1798 2796 2022 2732 2124 2635 
C 2246 2531 2291 2376 2291 2085 
L 2291 1833 
C 1619 1717 1414 1665 1100 1542 
C 550 1335 281 1032 281 624 
C 281 166 646 -128 1209 -128 
C 1651 -128 2048 51 2323 379 
C 2425 64 2585 -64 2886 -64 
C 3174 -64 3475 121 3475 307 
C 3475 352 3443 384 3411 384 
C 3385 384 3360 377 3315 358 
C 3212 320 3187 313 3136 313 
C 2956 313 2892 435 2892 755 
L 2892 2046 
z
M 2291 1260 
C 2291 876 2272 787 2163 620 
C 2003 371 1708 211 1433 211 
C 1145 211 928 422 928 710 
C 928 979 1062 1171 1344 1305 
C 1542 1395 1792 1459 2291 1542 
L 2291 1260 
z
" transform="scale(0.015625)"/>
       <path id="CenturySchL-Roma-f5" d="M 345 -762 
C 729 -526 934 -359 1152 -97 
C 1638 473 1900 1215 1900 1990 
C 1900 2719 1670 3404 1241 3967 
C 998 4281 780 4473 345 4736 
L 345 4499 
C 985 3935 1241 3219 1241 1990 
C 1241 754 985 38 345 -526 
L 345 -762 
z
" transform="scale(0.015625)"/>
      </defs>
      <use xlink:href="#CenturySchL-Roma-89" transform="scale(0.996264)"/>
      <use xlink:href="#CenturySchL-Roma-b3" transform="translate(71.929985 0) scale(0.996264)"/>
      <use xlink:href="#CenturySchL-Roma-aa" transform="translate(132.801616 0) scale(0.996264)"/>
      <use xlink:href="#CenturySchL-Roma-b7" transform="translate(182.614816 0) scale(0.996264)"/>
      <use xlink:href="#CenturySchL-Roma-ac" transform="translate(226.848385 0) scale(0.996264)"/>
      <use xlink:href="#CenturySchL-Roma-be" transform="translate(280.347729 0) scale(0.996264)"/>
      <use xlink:href="#CenturySchL-Roma-f4" transform="translate(361.542242 0) scale(0.996264)"/>
      <use xlink:href="#CenturySchL-Roma-8c" transform="translate(394.717472 0) scale(0.996264)"/>
      <use xlink:href="#CenturySchL-Roma-a6" transform="translate(477.705902 0) scale(0.996264)"/>
      <use xlink:href="#CenturySchL-Roma-f5" transform="translate(533.097579 0) scale(0.996264)"/>
     </g>
    </g>
   </g>
   <g id="legend_1">
    <g id="patch_5">
     <path d="M 294.184513 70.004505 
L 413.1 70.004505 
L 413.1 15.878278 
L 294.184513 15.878278 
z
" style="fill: #ffffff; stroke: #000000; stroke-linejoin: miter"/>
    </g>
    <g id="line2d_63">
     <path d="M 297.784513 22.981262 
L 306.784513 22.981262 
L 315.784513 22.981262 
" style="fill: none; stroke: #0000ff; stroke-linecap: square"/>
     <defs>
      <path id="m8e26b7fc31" d="M -4.5 4.5 
L 4.5 -4.5 
M -4.5 -4.5 
L 4.5 4.5 
" style="stroke: #0000ff; stroke-width: 0.5"/>
     </defs>
     <g>
      <use xlink:href="#m8e26b7fc31" x="306.784513" y="22.981262" style="fill: #0000ff; stroke: #0000ff; stroke-width: 0.5"/>
     </g>
    </g>
    <g id="text_9">
     <!-- HF -->
     <g transform="translate(322.984513 26.131262) scale(0.09 -0.09)">
      <defs>
       <path id="CenturySchL-Roma-8a" d="M 3993 4608 
L 185 4608 
L 185 4307 
L 300 4307 
C 819 4307 876 4275 876 4008 
L 876 3824 
L 876 787 
L 876 601 
C 876 332 819 300 300 300 
L 185 300 
L 185 0 
L 2380 0 
L 2380 300 
L 2169 300 
C 1651 300 1593 332 1593 601 
L 1593 787 
L 1593 2240 
L 1721 2240 
C 2118 2240 2272 2201 2406 2067 
C 2566 1900 2630 1696 2643 1318 
L 2944 1318 
L 2944 3411 
L 2643 3411 
C 2611 2788 2355 2540 1747 2540 
L 1593 2540 
L 1593 3989 
C 1593 4262 1651 4307 1996 4307 
L 2291 4307 
C 3347 4307 3622 4065 3801 2979 
L 4083 2979 
L 3993 4608 
z
" transform="scale(0.015625)"/>
      </defs>
      <use xlink:href="#CenturySchL-Roma-8c" transform="scale(0.996264)"/>
      <use xlink:href="#CenturySchL-Roma-8a" transform="translate(82.98843 0) scale(0.996264)"/>
     </g>
    </g>
    <g id="line2d_64">
     <path d="M 297.784513 35.837819 
L 306.784513 35.837819 
L 315.784513 35.837819 
" style="fill: none; stroke: #008000; stroke-linecap: square"/>
     <defs>
      <path id="m50be58eaf8" d="M 0 4.5 
C 1.193414 4.5 2.338109 4.025852 3.181981 3.181981 
C 4.025852 2.338109 4.5 1.193414 4.5 0 
C 4.5 -1.193414 4.025852 -2.338109 3.181981 -3.181981 
C 2.338109 -4.025852 1.193414 -4.5 0 -4.5 
C -1.193414 -4.5 -2.338109 -4.025852 -3.181981 -3.181981 
C -4.025852 -2.338109 -4.5 -1.193414 -4.5 0 
C -4.5 1.193414 -4.025852 2.338109 -3.181981 3.181981 
C -2.338109 4.025852 -1.193414 4.5 0 4.5 
z
" style="stroke: #000000; stroke-width: 0.5"/>
     </defs>
     <g>
      <use xlink:href="#m50be58eaf8" x="306.784513" y="35.837819" style="fill: #008000; stroke: #000000; stroke-width: 0.5"/>
     </g>
    </g>
    <g id="text_10">
     <!-- CCSD -->
     <g transform="translate(322.984513 38.987819) scale(0.09 -0.09)">
      <defs>
       <path id="CenturySchL-Roma-87" d="M 4089 4684 
L 3846 4684 
L 3590 4305 
C 3136 4639 2886 4736 2457 4736 
C 1836 4736 1324 4486 889 3962 
C 480 3469 288 2925 288 2258 
C 288 865 1190 -128 2451 -128 
C 3475 -128 4128 477 4275 1565 
L 3974 1617 
C 3910 1274 3833 1040 3718 846 
C 3456 399 3046 172 2528 172 
C 1580 172 1132 840 1132 2232 
C 1132 2964 1228 3456 1446 3845 
C 1644 4208 2041 4435 2451 4435 
C 2899 4435 3296 4195 3539 3780 
C 3661 3567 3757 3314 3904 2815 
L 4185 2815 
L 4089 4684 
z
" transform="scale(0.015625)"/>
       <path id="CenturySchL-Roma-97" d="M 3494 4678 
L 3257 4678 
L 3001 4292 
C 2700 4582 2291 4736 1836 4736 
C 998 4736 435 4195 435 3385 
C 435 2679 780 2329 1721 2083 
L 2329 1928 
C 2803 1805 2848 1792 2982 1688 
C 3174 1539 3277 1325 3277 1073 
C 3277 814 3180 600 2988 425 
C 2777 237 2566 166 2214 166 
C 1740 166 1401 315 1100 652 
C 832 956 697 1261 601 1759 
L 326 1759 
L 352 -84 
L 601 -84 
L 889 354 
C 1318 0 1676 -128 2233 -128 
C 3174 -128 3776 425 3776 1293 
C 3776 1695 3641 2038 3392 2284 
C 3219 2452 2969 2563 2457 2692 
L 1772 2867 
C 1203 3016 934 3269 934 3664 
C 934 4117 1299 4428 1843 4428 
C 2291 4428 2656 4234 2912 3865 
C 3097 3599 3212 3327 3296 2997 
L 3571 2997 
L 3494 4678 
z
" transform="scale(0.015625)"/>
       <path id="CenturySchL-Roma-88" d="M 876 785 
L 876 600 
C 876 332 819 300 307 300 
L 185 300 
L 185 0 
L 2336 0 
C 2905 0 3341 89 3680 281 
C 4326 645 4685 1372 4685 2329 
C 4685 3203 4365 3899 3776 4281 
C 3424 4505 2950 4608 2220 4608 
L 185 4608 
L 185 4307 
L 307 4307 
C 819 4307 876 4275 876 4007 
L 876 3822 
L 876 785 
z
M 1958 300 
C 1638 300 1593 339 1593 651 
L 1593 3950 
C 1593 4262 1638 4307 1958 4307 
L 2291 4307 
C 3385 4307 3840 3714 3840 2304 
C 3840 875 3424 300 2393 300 
L 1958 300 
z
" transform="scale(0.015625)"/>
      </defs>
      <use xlink:href="#CenturySchL-Roma-87" transform="scale(0.996264)"/>
      <use xlink:href="#CenturySchL-Roma-87" transform="translate(71.929985 0) scale(0.996264)"/>
      <use xlink:href="#CenturySchL-Roma-97" transform="translate(143.85997 0) scale(0.996264)"/>
      <use xlink:href="#CenturySchL-Roma-88" transform="translate(206.623949 0) scale(0.996264)"/>
     </g>
    </g>
    <g id="line2d_65">
     <path d="M 297.784513 48.694376 
L 306.784513 48.694376 
L 315.784513 48.694376 
" style="fill: none; stroke: #ff0000; stroke-linecap: square"/>
     <defs>
      <path id="m87d576a5fb" d="M 0 -4.5 
L -4.5 4.5 
L 4.5 4.5 
z
" style="stroke: #000000; stroke-width: 0.5; stroke-linejoin: miter"/>
     </defs>
     <g>
      <use xlink:href="#m87d576a5fb" x="306.784513" y="48.694376" style="fill: #ff0000; stroke: #000000; stroke-width: 0.5; stroke-linejoin: miter"/>
     </g>
    </g>
    <g id="text_11">
     <!-- UCJ (CCSD params) -->
     <g transform="translate(322.984513 51.844376) scale(0.09 -0.09)">
      <defs>
       <path id="CenturySchL-Roma-99" d="M 4371 3213 
C 4371 4094 4499 4281 5113 4307 
L 5113 4608 
L 3289 4608 
L 3289 4307 
C 3897 4281 4025 4094 4025 3213 
L 4025 1792 
C 4025 1278 3993 1072 3872 847 
C 3667 449 3251 217 2732 217 
C 2297 217 1920 384 1708 674 
C 1536 912 1504 1066 1504 1664 
L 1504 3818 
L 1504 4004 
C 1504 4274 1561 4307 2080 4307 
L 2201 4307 
L 2201 4608 
L 108 4608 
L 108 4307 
L 217 4307 
C 729 4307 787 4274 787 4004 
L 787 3818 
L 787 1702 
L 787 1259 
C 806 918 857 712 979 532 
C 1273 108 1836 -128 2560 -128 
C 3283 -128 3782 89 4089 545 
C 4294 841 4371 1182 4371 1754 
L 4371 3213 
z
" transform="scale(0.015625)"/>
       <path id="CenturySchL-Roma-8e" d="M 2739 3814 
L 2739 4002 
C 2739 4274 2796 4307 3315 4307 
L 3437 4307 
L 3437 4608 
L 1337 4608 
L 1337 4307 
L 1459 4307 
C 1971 4307 2028 4274 2028 4002 
L 2028 3814 
L 2028 1728 
C 2028 1164 2009 908 1945 719 
C 1824 361 1561 172 1190 172 
C 921 172 672 279 537 449 
C 467 536 416 662 416 737 
C 416 794 448 838 492 838 
L 512 838 
C 620 813 678 806 748 806 
C 979 806 1152 1004 1152 1267 
C 1152 1535 953 1728 672 1728 
C 300 1728 32 1401 32 947 
C 32 643 172 336 403 147 
C 614 -39 915 -128 1305 -128 
C 1868 -128 2278 57 2502 411 
C 2668 662 2739 1049 2739 1670 
L 2739 3814 
z
" transform="scale(0.015625)"/>
       <path id="CenturySchL-Roma-b5" d="M 1286 3008 
L 179 2944 
L 179 2668 
L 409 2668 
C 646 2668 684 2622 684 2340 
L 684 -535 
L 684 -790 
C 684 -1044 614 -1088 204 -1088 
L 179 -1088 
L 179 -1319 
L 1843 -1319 
L 1843 -1088 
L 1772 -1088 
C 1356 -1088 1286 -1044 1286 -790 
L 1286 -535 
L 1286 395 
C 1497 19 1740 -128 2131 -128 
C 2873 -128 3424 565 3424 1505 
C 3424 2380 2873 3072 2169 3072 
C 1772 3072 1510 2905 1286 2521 
L 1286 3008 
z
M 2054 2726 
C 2496 2726 2752 2280 2752 1523 
C 2752 689 2489 217 2035 217 
C 1580 217 1280 696 1280 1439 
C 1280 2241 1568 2726 2054 2726 
z
" transform="scale(0.015625)"/>
       <path id="CenturySchL-Roma-b2" d="M 1286 3008 
L 147 2944 
L 147 2668 
L 409 2668 
C 646 2668 684 2623 684 2344 
L 684 794 
L 684 541 
C 684 275 614 230 204 230 
L 179 230 
L 179 0 
L 1792 0 
L 1792 230 
L 1766 230 
C 1356 230 1286 275 1286 541 
L 1286 794 
L 1286 1715 
C 1286 2260 1600 2681 2016 2681 
C 2182 2681 2361 2592 2438 2470 
C 2528 2349 2566 2164 2566 1902 
L 2566 785 
L 2566 530 
C 2566 275 2496 230 2080 230 
L 2054 230 
L 2054 0 
L 3673 0 
L 3673 230 
L 3648 230 
C 3238 230 3168 275 3168 530 
L 3168 785 
L 3168 1634 
C 3168 2272 3456 2681 3904 2681 
C 4115 2681 4288 2560 4371 2362 
C 4429 2221 4448 2081 4448 1832 
L 4448 785 
L 4448 530 
C 4448 275 4377 230 3961 230 
L 3936 230 
L 3936 0 
L 5555 0 
L 5555 230 
L 5529 230 
C 5120 230 5049 275 5049 536 
L 5049 785 
L 5049 1960 
C 5049 2355 5011 2489 4845 2707 
C 4659 2943 4397 3072 4089 3072 
C 3673 3072 3366 2873 3091 2432 
C 2982 2815 2636 3072 2208 3072 
C 1824 3072 1536 2886 1286 2483 
L 1286 3008 
z
" transform="scale(0.015625)"/>
       <path id="CenturySchL-Roma-b8" d="M 2496 3072 
L 2272 3072 
L 2086 2841 
C 1856 2995 1625 3072 1305 3072 
C 742 3072 371 2700 371 2137 
C 371 1885 454 1672 595 1543 
C 742 1407 889 1342 1273 1252 
L 1612 1174 
C 2118 1052 2297 922 2297 664 
C 2297 360 2035 147 1657 147 
C 1120 147 736 496 582 1142 
L 326 1142 
L 326 -77 
L 550 -77 
L 774 185 
C 1036 -26 1331 -128 1651 -128 
C 2278 -128 2694 263 2694 864 
C 2694 1148 2604 1368 2425 1517 
C 2272 1653 2144 1704 1753 1788 
L 1433 1859 
C 1081 1937 1081 1937 966 2002 
C 825 2066 742 2202 742 2344 
C 742 2603 985 2790 1337 2790 
C 1580 2790 1779 2706 1958 2532 
C 2099 2419 2169 2291 2272 1996 
L 2496 1996 
L 2496 3072 
z
" transform="scale(0.015625)"/>
      </defs>
      <use xlink:href="#CenturySchL-Roma-99" transform="scale(0.996264)"/>
      <use xlink:href="#CenturySchL-Roma-87" transform="translate(81.194513 0) scale(0.996264)"/>
      <use xlink:href="#CenturySchL-Roma-8e" transform="translate(153.124498 0) scale(0.996264)"/>
      <use xlink:href="#CenturySchL-Roma-f4" transform="translate(236.211345 0) scale(0.996264)"/>
      <use xlink:href="#CenturySchL-Roma-87" transform="translate(269.386575 0) scale(0.996264)"/>
      <use xlink:href="#CenturySchL-Roma-87" transform="translate(341.316559 0) scale(0.996264)"/>
      <use xlink:href="#CenturySchL-Roma-97" transform="translate(413.246544 0) scale(0.996264)"/>
      <use xlink:href="#CenturySchL-Roma-88" transform="translate(476.010523 0) scale(0.996264)"/>
      <use xlink:href="#CenturySchL-Roma-b5" transform="translate(581.214063 0) scale(0.996264)"/>
      <use xlink:href="#CenturySchL-Roma-a6" transform="translate(638.39955 0) scale(0.996264)"/>
      <use xlink:href="#CenturySchL-Roma-b7" transform="translate(693.791227 0) scale(0.996264)"/>
      <use xlink:href="#CenturySchL-Roma-a6" transform="translate(738.024796 0) scale(0.996264)"/>
      <use xlink:href="#CenturySchL-Roma-b2" transform="translate(793.416473 0) scale(0.996264)"/>
      <use xlink:href="#CenturySchL-Roma-b8" transform="translate(881.98338 0) scale(0.996264)"/>
      <use xlink:href="#CenturySchL-Roma-f5" transform="translate(928.10919 0) scale(0.996264)"/>
     </g>
    </g>
    <g id="line2d_66">
     <path d="M 297.784513 61.550932 
L 306.784513 61.550932 
L 315.784513 61.550932 
" style="fill: none; stroke: #00bfbf; stroke-linecap: square"/>
     <defs>
      <path id="m6ad32167dc" d="M -0 6.363961 
L 6.363961 0 
L 0 -6.363961 
L -6.363961 -0 
z
" style="stroke: #000000; stroke-width: 0.5; stroke-linejoin: miter"/>
     </defs>
     <g>
      <use xlink:href="#m6ad32167dc" x="306.784513" y="61.550932" style="fill: #00bfbf; stroke: #000000; stroke-width: 0.5; stroke-linejoin: miter"/>
     </g>
    </g>
    <g id="text_12">
     <!-- UCJ (optimized) -->
     <g transform="translate(322.984513 64.700932) scale(0.09 -0.09)">
      <defs>
       <path id="CenturySchL-Roma-b4" d="M 1612 3072 
C 832 3072 217 2370 217 1465 
C 217 580 832 -128 1600 -128 
C 2368 -128 2982 580 2982 1471 
C 2982 2357 2368 3072 1612 3072 
z
M 1612 2796 
C 2060 2796 2310 2324 2310 1471 
C 2310 612 2060 147 1600 147 
C 1139 147 889 612 889 1465 
C 889 2344 1132 2796 1612 2796 
z
" transform="scale(0.015625)"/>
       <path id="CenturySchL-Roma-b9" d="M 1241 3008 
L 1241 4275 
L 979 4275 
C 915 3443 633 3020 115 2982 
L 115 2732 
L 640 2732 
L 640 1061 
C 640 603 652 439 716 288 
C 819 19 1075 -128 1446 -128 
C 1696 -128 1913 -52 2060 89 
C 2272 295 2393 642 2393 1002 
C 2393 1042 2393 1088 2387 1153 
L 2118 1153 
C 2099 563 1932 262 1619 262 
C 1472 262 1344 341 1299 452 
C 1260 544 1241 708 1241 943 
L 1241 2732 
L 2182 2732 
L 2182 3008 
L 1241 3008 
z
" transform="scale(0.015625)"/>
       <path id="CenturySchL-Roma-ae" d="M 1318 3008 
L 115 2944 
L 115 2668 
L 441 2668 
C 678 2668 716 2623 716 2344 
L 716 794 
L 716 535 
C 716 275 646 230 236 230 
L 192 230 
L 192 0 
L 1849 0 
L 1849 230 
L 1804 230 
C 1388 230 1318 275 1318 535 
L 1318 794 
L 1318 3008 
z
M 1017 4608 
C 812 4608 646 4441 646 4236 
C 646 4038 812 3865 1011 3865 
C 1222 3865 1388 4031 1388 4236 
C 1388 4441 1222 4608 1017 4608 
z
" transform="scale(0.015625)"/>
       <path id="CenturySchL-Roma-bf" d="M 2739 3008 
L 428 3008 
L 371 1917 
L 627 1917 
C 684 2499 915 2732 1440 2732 
L 1996 2732 
L 249 230 
L 249 0 
L 2739 0 
L 2784 1154 
L 2528 1154 
C 2464 514 2220 275 1644 275 
L 992 275 
L 2739 2777 
L 2739 3008 
z
" transform="scale(0.015625)"/>
       <path id="CenturySchL-Roma-a9" d="M 2432 -45 
L 3545 0 
L 3545 275 
L 3430 275 
C 3084 275 3033 339 3033 744 
L 3033 4736 
L 1779 4672 
L 1779 4396 
L 2156 4396 
C 2387 4396 2432 4350 2432 4068 
L 2432 2597 
C 2195 2924 1920 3072 1548 3072 
C 825 3072 275 2370 275 1439 
C 275 521 806 -128 1548 -128 
C 1952 -128 2227 44 2432 430 
L 2432 -45 
z
M 1676 2726 
C 1939 2726 2188 2532 2304 2234 
C 2380 2040 2425 1769 2425 1459 
C 2425 709 2131 217 1670 217 
C 1222 217 947 644 947 1362 
C 947 1743 985 2034 1068 2254 
C 1177 2538 1414 2726 1676 2726 
z
" transform="scale(0.015625)"/>
      </defs>
      <use xlink:href="#CenturySchL-Roma-99" transform="scale(0.996264)"/>
      <use xlink:href="#CenturySchL-Roma-87" transform="translate(81.194513 0) scale(0.996264)"/>
      <use xlink:href="#CenturySchL-Roma-8e" transform="translate(153.124498 0) scale(0.996264)"/>
      <use xlink:href="#CenturySchL-Roma-f4" transform="translate(236.211345 0) scale(0.996264)"/>
      <use xlink:href="#CenturySchL-Roma-b4" transform="translate(269.386575 0) scale(0.996264)"/>
      <use xlink:href="#CenturySchL-Roma-b5" transform="translate(319.199775 0) scale(0.996264)"/>
      <use xlink:href="#CenturySchL-Roma-b9" transform="translate(376.385262 0) scale(0.996264)"/>
      <use xlink:href="#CenturySchL-Roma-ae" transform="translate(415.138969 0) scale(0.996264)"/>
      <use xlink:href="#CenturySchL-Roma-b2" transform="translate(446.520282 0) scale(0.996264)"/>
      <use xlink:href="#CenturySchL-Roma-ae" transform="translate(535.087188 0) scale(0.996264)"/>
      <use xlink:href="#CenturySchL-Roma-bf" transform="translate(566.468501 0) scale(0.996264)"/>
      <use xlink:href="#CenturySchL-Roma-aa" transform="translate(614.388213 0) scale(0.996264)"/>
      <use xlink:href="#CenturySchL-Roma-a9" transform="translate(664.201414 0) scale(0.996264)"/>
      <use xlink:href="#CenturySchL-Roma-f5" transform="translate(721.386901 0) scale(0.996264)"/>
     </g>
    </g>
   </g>
  </g>
  <g id="axes_2">
   <g id="patch_6">
    <path d="M 47.439986 247.958377 
L 417.6 247.958377 
L 417.6 138.216785 
L 47.439986 138.216785 
z
" style="fill: #ffffff"/>
   </g>
   <g id="line2d_67">
    <path d="M 65.947986 158.918665 
L 102.963988 156.48724 
L 139.979989 155.055882 
L 176.995991 154.038147 
L 214.011992 153.247067 
L 251.027994 152.599345 
L 288.043995 152.050589 
L 325.059996 151.574325 
L 362.075998 151.153486 
L 399.091999 150.776417 
" clip-path="url(#pd42a0a3e31)" style="fill: none; stroke: #0000ff; stroke-linecap: square"/>
    <g clip-path="url(#pd42a0a3e31)">
     <use xlink:href="#m1a416e2edb" x="65.947986" y="158.918665" style="fill: #0000ff; stroke: #0000ff; stroke-width: 0.5"/>
     <use xlink:href="#m1a416e2edb" x="102.963988" y="156.48724" style="fill: #0000ff; stroke: #0000ff; stroke-width: 0.5"/>
     <use xlink:href="#m1a416e2edb" x="139.979989" y="155.055882" style="fill: #0000ff; stroke: #0000ff; stroke-width: 0.5"/>
     <use xlink:href="#m1a416e2edb" x="176.995991" y="154.038147" style="fill: #0000ff; stroke: #0000ff; stroke-width: 0.5"/>
     <use xlink:href="#m1a416e2edb" x="214.011992" y="153.247067" style="fill: #0000ff; stroke: #0000ff; stroke-width: 0.5"/>
     <use xlink:href="#m1a416e2edb" x="251.027994" y="152.599345" style="fill: #0000ff; stroke: #0000ff; stroke-width: 0.5"/>
     <use xlink:href="#m1a416e2edb" x="288.043995" y="152.050589" style="fill: #0000ff; stroke: #0000ff; stroke-width: 0.5"/>
     <use xlink:href="#m1a416e2edb" x="325.059996" y="151.574325" style="fill: #0000ff; stroke: #0000ff; stroke-width: 0.5"/>
     <use xlink:href="#m1a416e2edb" x="362.075998" y="151.153486" style="fill: #0000ff; stroke: #0000ff; stroke-width: 0.5"/>
     <use xlink:href="#m1a416e2edb" x="399.091999" y="150.776417" style="fill: #0000ff; stroke: #0000ff; stroke-width: 0.5"/>
    </g>
   </g>
   <g id="line2d_68">
    <path d="M 65.947986 164.050139 
L 102.963988 157.484079 
L 139.979989 155.399037 
L 176.995991 154.132772 
L 214.011992 153.222236 
L 251.027994 152.510672 
L 288.043995 151.926088 
L 325.059996 151.429511 
L 362.075998 150.997499 
L 399.091999 150.614872 
" clip-path="url(#pd42a0a3e31)" style="fill: none; stroke: #ff0000; stroke-linecap: square"/>
    <g clip-path="url(#pd42a0a3e31)">
     <use xlink:href="#m2a80e40201" x="65.947986" y="164.050139" style="fill: #ff0000; stroke: #000000; stroke-width: 0.5; stroke-linejoin: miter"/>
     <use xlink:href="#m2a80e40201" x="102.963988" y="157.484079" style="fill: #ff0000; stroke: #000000; stroke-width: 0.5; stroke-linejoin: miter"/>
     <use xlink:href="#m2a80e40201" x="139.979989" y="155.399037" style="fill: #ff0000; stroke: #000000; stroke-width: 0.5; stroke-linejoin: miter"/>
     <use xlink:href="#m2a80e40201" x="176.995991" y="154.132772" style="fill: #ff0000; stroke: #000000; stroke-width: 0.5; stroke-linejoin: miter"/>
     <use xlink:href="#m2a80e40201" x="214.011992" y="153.222236" style="fill: #ff0000; stroke: #000000; stroke-width: 0.5; stroke-linejoin: miter"/>
     <use xlink:href="#m2a80e40201" x="251.027994" y="152.510672" style="fill: #ff0000; stroke: #000000; stroke-width: 0.5; stroke-linejoin: miter"/>
     <use xlink:href="#m2a80e40201" x="288.043995" y="151.926088" style="fill: #ff0000; stroke: #000000; stroke-width: 0.5; stroke-linejoin: miter"/>
     <use xlink:href="#m2a80e40201" x="325.059996" y="151.429511" style="fill: #ff0000; stroke: #000000; stroke-width: 0.5; stroke-linejoin: miter"/>
     <use xlink:href="#m2a80e40201" x="362.075998" y="150.997499" style="fill: #ff0000; stroke: #000000; stroke-width: 0.5; stroke-linejoin: miter"/>
     <use xlink:href="#m2a80e40201" x="399.091999" y="150.614872" style="fill: #ff0000; stroke: #000000; stroke-width: 0.5; stroke-linejoin: miter"/>
    </g>
   </g>
   <g id="line2d_69">
    <path d="M 65.947986 236.93267 
L 102.963988 170.035934 
L 139.979989 166.84693 
L 176.995991 163.729608 
L 214.011992 163.727836 
L 251.027994 159.823437 
L 288.043995 158.902113 
L 325.059996 157.83809 
L 362.075998 156.818085 
L 399.091999 159.972915 
" clip-path="url(#pd42a0a3e31)" style="fill: none; stroke: #00bfbf; stroke-linecap: square"/>
    <g clip-path="url(#pd42a0a3e31)">
     <use xlink:href="#m2aaaaf20b4" x="65.947986" y="236.93267" style="fill: #00bfbf; stroke: #000000; stroke-width: 0.5; stroke-linejoin: miter"/>
     <use xlink:href="#m2aaaaf20b4" x="102.963988" y="170.035934" style="fill: #00bfbf; stroke: #000000; stroke-width: 0.5; stroke-linejoin: miter"/>
     <use xlink:href="#m2aaaaf20b4" x="139.979989" y="166.84693" style="fill: #00bfbf; stroke: #000000; stroke-width: 0.5; stroke-linejoin: miter"/>
     <use xlink:href="#m2aaaaf20b4" x="176.995991" y="163.729608" style="fill: #00bfbf; stroke: #000000; stroke-width: 0.5; stroke-linejoin: miter"/>
     <use xlink:href="#m2aaaaf20b4" x="214.011992" y="163.727836" style="fill: #00bfbf; stroke: #000000; stroke-width: 0.5; stroke-linejoin: miter"/>
     <use xlink:href="#m2aaaaf20b4" x="251.027994" y="159.823437" style="fill: #00bfbf; stroke: #000000; stroke-width: 0.5; stroke-linejoin: miter"/>
     <use xlink:href="#m2aaaaf20b4" x="288.043995" y="158.902113" style="fill: #00bfbf; stroke: #000000; stroke-width: 0.5; stroke-linejoin: miter"/>
     <use xlink:href="#m2aaaaf20b4" x="325.059996" y="157.83809" style="fill: #00bfbf; stroke: #000000; stroke-width: 0.5; stroke-linejoin: miter"/>
     <use xlink:href="#m2aaaaf20b4" x="362.075998" y="156.818085" style="fill: #00bfbf; stroke: #000000; stroke-width: 0.5; stroke-linejoin: miter"/>
     <use xlink:href="#m2aaaaf20b4" x="399.091999" y="159.972915" style="fill: #00bfbf; stroke: #000000; stroke-width: 0.5; stroke-linejoin: miter"/>
    </g>
   </g>
   <g id="line2d_70">
    <path d="M 47.439986 170.275011 
L 417.6 170.275011 
" clip-path="url(#pd42a0a3e31)" style="fill: none; stroke-dasharray: 6,6; stroke-dashoffset: 0; stroke: #808080"/>
   </g>
   <g id="patch_7">
    <path d="M 47.439986 247.958377 
L 47.439986 138.216785 
" style="fill: none; stroke: #000000; stroke-width: 0.8; stroke-linejoin: miter; stroke-linecap: square"/>
   </g>
   <g id="patch_8">
    <path d="M 47.439986 247.958377 
L 417.6 247.958377 
" style="fill: none; stroke: #000000; stroke-width: 0.8; stroke-linejoin: miter; stroke-linecap: square"/>
   </g>
   <g id="matplotlib.axis_3">
    <g id="xtick_5">
     <g id="line2d_71">
      <path d="M 121.471989 247.958377 
L 121.471989 138.216785 
" clip-path="url(#pd42a0a3e31)" style="fill: none; stroke: #000000; stroke-opacity: 0; stroke-width: 0.5; stroke-linecap: square"/>
     </g>
     <g id="line2d_72">
      <g>
       <use xlink:href="#m4af6a6387d" x="121.471989" y="247.958377" style="stroke: #000000; stroke-width: 0.8"/>
      </g>
     </g>
     <g id="text_13">
      <!-- $\mathdefault{5}$ -->
      <g transform="translate(119.168143 258.611361) scale(0.09 -0.09)">
       <defs>
        <path id="CMR17-37" d="M 729 3750 
C 793 3724 1056 3641 1324 3641 
C 1920 3641 2246 3961 2432 4140 
C 2432 4191 2432 4224 2393 4224 
C 2387 4224 2374 4224 2323 4198 
C 2099 4102 1836 4032 1516 4032 
C 1324 4032 1036 4055 723 4191 
C 652 4224 640 4224 633 4224 
C 601 4224 595 4217 595 4090 
L 595 2231 
C 595 2113 595 2080 659 2080 
C 691 2080 704 2093 736 2139 
C 940 2435 1222 2560 1542 2560 
C 1766 2560 2246 2415 2246 1293 
C 2246 1087 2246 716 2054 422 
C 1894 159 1644 25 1369 25 
C 947 25 518 319 403 812 
C 428 806 480 793 505 793 
C 588 793 748 838 748 1036 
C 748 1209 627 1280 505 1280 
C 358 1280 262 1190 262 1011 
C 262 454 704 -128 1382 -128 
C 2041 -128 2668 441 2668 1267 
C 2668 2054 2169 2662 1548 2662 
C 1222 2662 947 2540 729 2304 
L 729 3750 
z
" transform="scale(0.015625)"/>
       </defs>
       <use xlink:href="#CMR17-37" transform="scale(0.996264)"/>
      </g>
     </g>
    </g>
    <g id="xtick_6">
     <g id="line2d_73">
      <path d="M 214.011992 247.958377 
L 214.011992 138.216785 
" clip-path="url(#pd42a0a3e31)" style="fill: none; stroke: #000000; stroke-opacity: 0; stroke-width: 0.5; stroke-linecap: square"/>
     </g>
     <g id="line2d_74">
      <g>
       <use xlink:href="#m4af6a6387d" x="214.011992" y="247.958377" style="stroke: #000000; stroke-width: 0.8"/>
      </g>
     </g>
     <g id="text_14">
      <!-- $\mathdefault{10}$ -->
      <g transform="translate(209.404301 258.611361) scale(0.09 -0.09)">
       <use xlink:href="#CMR17-33" transform="scale(0.996264)"/>
       <use xlink:href="#CMR17-32" transform="translate(45.690477 0) scale(0.996264)"/>
      </g>
     </g>
    </g>
    <g id="xtick_7">
     <g id="line2d_75">
      <path d="M 306.551996 247.958377 
L 306.551996 138.216785 
" clip-path="url(#pd42a0a3e31)" style="fill: none; stroke: #000000; stroke-opacity: 0; stroke-width: 0.5; stroke-linecap: square"/>
     </g>
     <g id="line2d_76">
      <g>
       <use xlink:href="#m4af6a6387d" x="306.551996" y="247.958377" style="stroke: #000000; stroke-width: 0.8"/>
      </g>
     </g>
     <g id="text_15">
      <!-- $\mathdefault{15}$ -->
      <g transform="translate(301.944305 258.611361) scale(0.09 -0.09)">
       <use xlink:href="#CMR17-33" transform="scale(0.996264)"/>
       <use xlink:href="#CMR17-37" transform="translate(45.690477 0) scale(0.996264)"/>
      </g>
     </g>
    </g>
    <g id="xtick_8">
     <g id="line2d_77">
      <path d="M 399.091999 247.958377 
L 399.091999 138.216785 
" clip-path="url(#pd42a0a3e31)" style="fill: none; stroke: #000000; stroke-opacity: 0; stroke-width: 0.5; stroke-linecap: square"/>
     </g>
     <g id="line2d_78">
      <g>
       <use xlink:href="#m4af6a6387d" x="399.091999" y="247.958377" style="stroke: #000000; stroke-width: 0.8"/>
      </g>
     </g>
     <g id="text_16">
      <!-- $\mathdefault{20}$ -->
      <g transform="translate(394.484309 258.611361) scale(0.09 -0.09)">
       <use xlink:href="#CMR17-34" transform="scale(0.996264)"/>
       <use xlink:href="#CMR17-32" transform="translate(45.690477 0) scale(0.996264)"/>
      </g>
     </g>
    </g>
    <g id="text_17">
     <!-- Chain length ($N$) -->
     <g transform="translate(193.105708 271.707135) scale(0.1 -0.1)">
      <defs>
       <path id="CenturySchL-Roma-ad" d="M 1280 4736 
L 96 4672 
L 96 4396 
L 403 4396 
C 640 4396 678 4350 678 4068 
L 678 785 
L 678 530 
C 678 275 608 230 198 230 
L 172 230 
L 172 0 
L 1792 0 
L 1792 230 
L 1766 230 
C 1350 230 1280 275 1280 530 
L 1280 785 
L 1280 1443 
C 1280 1762 1324 2049 1395 2196 
C 1529 2483 1817 2681 2092 2681 
C 2259 2681 2451 2585 2547 2458 
C 2643 2317 2688 2126 2688 1813 
L 2688 785 
L 2688 530 
C 2688 275 2617 230 2201 230 
L 2176 230 
L 2176 0 
L 3795 0 
L 3795 230 
L 3769 230 
C 3360 230 3289 275 3289 530 
L 3289 785 
L 3289 1787 
C 3289 2247 3270 2362 3155 2579 
C 2995 2886 2675 3072 2291 3072 
C 1881 3072 1568 2879 1280 2451 
L 1280 4736 
z
" transform="scale(0.015625)"/>
       <path id="CenturySchL-Roma-b1" d="M 1305 4736 
L 121 4672 
L 121 4396 
L 435 4396 
C 665 4396 704 4351 704 4074 
L 704 790 
L 704 533 
C 704 275 633 230 224 230 
L 179 230 
L 179 0 
L 1836 0 
L 1836 230 
L 1792 230 
C 1376 230 1305 275 1305 533 
L 1305 790 
L 1305 4736 
z
" transform="scale(0.015625)"/>
       <path id="CMMI12-4f" d="M 4736 3682 
C 4806 3956 4909 4147 5395 4166 
C 5414 4166 5491 4172 5491 4281 
C 5491 4352 5433 4352 5408 4352 
C 5280 4352 4953 4339 4825 4339 
L 4518 4339 
C 4429 4339 4313 4352 4224 4352 
C 4185 4352 4109 4352 4109 4230 
C 4109 4166 4160 4166 4205 4166 
C 4589 4153 4614 4007 4614 3892 
C 4614 3835 4608 3816 4589 3726 
L 3865 854 
L 2496 4243 
C 2451 4345 2444 4352 2304 4352 
L 1523 4352 
C 1395 4352 1337 4352 1337 4230 
C 1337 4166 1382 4166 1504 4166 
C 1536 4166 1913 4166 1913 4109 
C 1913 4096 1900 4045 1894 4026 
L 1043 650 
C 966 338 812 204 390 185 
C 358 185 294 179 294 64 
C 294 0 358 0 377 0 
C 505 0 832 12 960 12 
L 1267 12 
C 1356 12 1465 0 1555 0 
C 1600 0 1670 0 1670 121 
C 1670 179 1606 185 1580 185 
C 1369 191 1164 230 1164 459 
C 1164 510 1177 567 1190 618 
L 2054 4026 
C 2092 3962 2092 3949 2118 3892 
L 3641 115 
C 3673 38 3686 0 3744 0 
C 3808 0 3814 19 3840 128 
L 4736 3682 
z
" transform="scale(0.015625)"/>
      </defs>
      <use xlink:href="#CenturySchL-Roma-87" transform="scale(0.996264)"/>
      <use xlink:href="#CenturySchL-Roma-ad" transform="translate(71.929985 0) scale(0.996264)"/>
      <use xlink:href="#CenturySchL-Roma-a6" transform="translate(132.801616 0) scale(0.996264)"/>
      <use xlink:href="#CenturySchL-Roma-ae" transform="translate(188.193292 0) scale(0.996264)"/>
      <use xlink:href="#CenturySchL-Roma-b3" transform="translate(219.574605 0) scale(0.996264)"/>
      <use xlink:href="#CenturySchL-Roma-b1" transform="translate(308.141406 0) scale(0.996264)"/>
      <use xlink:href="#CenturySchL-Roma-aa" transform="translate(339.522719 0) scale(0.996264)"/>
      <use xlink:href="#CenturySchL-Roma-b3" transform="translate(389.335919 0) scale(0.996264)"/>
      <use xlink:href="#CenturySchL-Roma-ac" transform="translate(450.20755 0) scale(0.996264)"/>
      <use xlink:href="#CenturySchL-Roma-b9" transform="translate(503.706894 0) scale(0.996264)"/>
      <use xlink:href="#CenturySchL-Roma-ad" transform="translate(542.4606 0) scale(0.996264)"/>
      <use xlink:href="#CenturySchL-Roma-f4" transform="translate(631.0274 0) scale(0.996264)"/>
      <use xlink:href="#CMMI12-4f" transform="translate(664.20263 0) scale(0.996264)"/>
      <use xlink:href="#CenturySchL-Roma-f5" transform="translate(752.724403 0) scale(0.996264)"/>
     </g>
    </g>
   </g>
   <g id="matplotlib.axis_4">
    <g id="ytick_26">
     <g id="line2d_79">
      <path d="M 47.439986 247.958377 
L 417.6 247.958377 
" clip-path="url(#pd42a0a3e31)" style="fill: none; stroke: #000000; stroke-opacity: 0; stroke-width: 0.5; stroke-linecap: square"/>
     </g>
     <g id="line2d_80">
      <g>
       <use xlink:href="#m69f7822092" x="47.439986" y="247.958377" style="stroke: #000000; stroke-width: 0.8"/>
      </g>
     </g>
     <g id="text_18">
      <!-- $\mathdefault{10^{-12}}$ -->
      <g transform="translate(21.16264 250.937197) scale(0.09 -0.09)">
       <use xlink:href="#CMR17-33" transform="scale(0.996264)"/>
       <use xlink:href="#CMR17-32" transform="translate(45.690477 0) scale(0.996264)"/>
       <use xlink:href="#CMSY10-1" transform="translate(91.380954 36.153639) scale(0.697382)"/>
       <use xlink:href="#CMR17-33" transform="translate(145.621947 36.153639) scale(0.697382)"/>
       <use xlink:href="#CMR17-34" transform="translate(177.605129 36.153639) scale(0.697382)"/>
      </g>
     </g>
    </g>
    <g id="ytick_27">
     <g id="line2d_81">
      <path d="M 47.439986 231.075055 
L 417.6 231.075055 
" clip-path="url(#pd42a0a3e31)" style="fill: none; stroke: #000000; stroke-opacity: 0; stroke-width: 0.5; stroke-linecap: square"/>
     </g>
     <g id="line2d_82">
      <g>
       <use xlink:href="#m69f7822092" x="47.439986" y="231.075055" style="stroke: #000000; stroke-width: 0.8"/>
      </g>
     </g>
     <g id="text_19">
      <!-- $\mathdefault{10^{-10}}$ -->
      <g transform="translate(21.16264 234.053875) scale(0.09 -0.09)">
       <use xlink:href="#CMR17-33" transform="scale(0.996264)"/>
       <use xlink:href="#CMR17-32" transform="translate(45.690477 0) scale(0.996264)"/>
       <use xlink:href="#CMSY10-1" transform="translate(91.380954 36.153639) scale(0.697382)"/>
       <use xlink:href="#CMR17-33" transform="translate(145.621947 36.153639) scale(0.697382)"/>
       <use xlink:href="#CMR17-32" transform="translate(177.605129 36.153639) scale(0.697382)"/>
      </g>
     </g>
    </g>
    <g id="ytick_28">
     <g id="line2d_83">
      <path d="M 47.439986 214.191733 
L 417.6 214.191733 
" clip-path="url(#pd42a0a3e31)" style="fill: none; stroke: #000000; stroke-opacity: 0; stroke-width: 0.5; stroke-linecap: square"/>
     </g>
     <g id="line2d_84">
      <g>
       <use xlink:href="#m69f7822092" x="47.439986" y="214.191733" style="stroke: #000000; stroke-width: 0.8"/>
      </g>
     </g>
     <g id="text_20">
      <!-- $\mathdefault{10^{-8}}$ -->
      <g transform="translate(24.815552 217.170553) scale(0.09 -0.09)">
       <use xlink:href="#CMR17-33" transform="scale(0.996264)"/>
       <use xlink:href="#CMR17-32" transform="translate(45.690477 0) scale(0.996264)"/>
       <use xlink:href="#CMSY10-1" transform="translate(91.380954 36.153639) scale(0.697382)"/>
       <use xlink:href="#CMR17-3a" transform="translate(145.621947 36.153639) scale(0.697382)"/>
      </g>
     </g>
    </g>
    <g id="ytick_29">
     <g id="line2d_85">
      <path d="M 47.439986 197.308412 
L 417.6 197.308412 
" clip-path="url(#pd42a0a3e31)" style="fill: none; stroke: #000000; stroke-opacity: 0; stroke-width: 0.5; stroke-linecap: square"/>
     </g>
     <g id="line2d_86">
      <g>
       <use xlink:href="#m69f7822092" x="47.439986" y="197.308412" style="stroke: #000000; stroke-width: 0.8"/>
      </g>
     </g>
     <g id="text_21">
      <!-- $\mathdefault{10^{-6}}$ -->
      <g transform="translate(24.815552 200.287231) scale(0.09 -0.09)">
       <use xlink:href="#CMR17-33" transform="scale(0.996264)"/>
       <use xlink:href="#CMR17-32" transform="translate(45.690477 0) scale(0.996264)"/>
       <use xlink:href="#CMSY10-1" transform="translate(91.380954 36.153639) scale(0.697382)"/>
       <use xlink:href="#CMR17-38" transform="translate(145.621947 36.153639) scale(0.697382)"/>
      </g>
     </g>
    </g>
    <g id="ytick_30">
     <g id="line2d_87">
      <path d="M 47.439986 180.42509 
L 417.6 180.42509 
" clip-path="url(#pd42a0a3e31)" style="fill: none; stroke: #000000; stroke-opacity: 0; stroke-width: 0.5; stroke-linecap: square"/>
     </g>
     <g id="line2d_88">
      <g>
       <use xlink:href="#m69f7822092" x="47.439986" y="180.42509" style="stroke: #000000; stroke-width: 0.8"/>
      </g>
     </g>
     <g id="text_22">
      <!-- $\mathdefault{10^{-4}}$ -->
      <g transform="translate(24.815552 183.403909) scale(0.09 -0.09)">
       <use xlink:href="#CMR17-33" transform="scale(0.996264)"/>
       <use xlink:href="#CMR17-32" transform="translate(45.690477 0) scale(0.996264)"/>
       <use xlink:href="#CMSY10-1" transform="translate(91.380954 36.153639) scale(0.697382)"/>
       <use xlink:href="#CMR17-36" transform="translate(145.621947 36.153639) scale(0.697382)"/>
      </g>
     </g>
    </g>
    <g id="ytick_31">
     <g id="line2d_89">
      <path d="M 47.439986 163.541768 
L 417.6 163.541768 
" clip-path="url(#pd42a0a3e31)" style="fill: none; stroke: #000000; stroke-opacity: 0; stroke-width: 0.5; stroke-linecap: square"/>
     </g>
     <g id="line2d_90">
      <g>
       <use xlink:href="#m69f7822092" x="47.439986" y="163.541768" style="stroke: #000000; stroke-width: 0.8"/>
      </g>
     </g>
     <g id="text_23">
      <!-- $\mathdefault{10^{-2}}$ -->
      <g transform="translate(24.815552 166.520588) scale(0.09 -0.09)">
       <use xlink:href="#CMR17-33" transform="scale(0.996264)"/>
       <use xlink:href="#CMR17-32" transform="translate(45.690477 0) scale(0.996264)"/>
       <use xlink:href="#CMSY10-1" transform="translate(91.380954 36.153639) scale(0.697382)"/>
       <use xlink:href="#CMR17-34" transform="translate(145.621947 36.153639) scale(0.697382)"/>
      </g>
     </g>
    </g>
    <g id="ytick_32">
     <g id="line2d_91">
      <path d="M 47.439986 146.658446 
L 417.6 146.658446 
" clip-path="url(#pd42a0a3e31)" style="fill: none; stroke: #000000; stroke-opacity: 0; stroke-width: 0.5; stroke-linecap: square"/>
     </g>
     <g id="line2d_92">
      <g>
       <use xlink:href="#m69f7822092" x="47.439986" y="146.658446" style="stroke: #000000; stroke-width: 0.8"/>
      </g>
     </g>
     <g id="text_24">
      <!-- $\mathdefault{10^{0}}$ -->
      <g transform="translate(30.571692 149.637266) scale(0.09 -0.09)">
       <use xlink:href="#CMR17-33" transform="scale(0.996264)"/>
       <use xlink:href="#CMR17-32" transform="translate(45.690477 0) scale(0.996264)"/>
       <use xlink:href="#CMR17-32" transform="translate(91.380954 36.153639) scale(0.697382)"/>
      </g>
     </g>
    </g>
    <g id="text_25">
     <!-- $|E - E_{\mathrm{CCSD}}|$ (Ha) -->
     <g transform="translate(14.67198 232.341342) rotate(-90) scale(0.1 -0.1)">
      <defs>
       <path id="CMSY10-6b" d="M 1017 4569 
C 1017 4684 1017 4800 889 4800 
C 761 4800 761 4684 761 4569 
L 761 -1370 
C 761 -1485 761 -1600 889 -1600 
C 1017 -1600 1017 -1485 1017 -1370 
L 1017 4569 
z
" transform="scale(0.015625)"/>
       <path id="CMMI12-46" d="M 4448 1489 
C 4454 1508 4473 1553 4473 1578 
C 4473 1611 4448 1643 4409 1643 
C 4384 1643 4371 1636 4352 1617 
C 4339 1611 4339 1598 4281 1469 
C 3904 570 3629 185 2604 185 
L 1670 185 
C 1580 185 1568 185 1529 192 
C 1459 198 1452 211 1452 262 
C 1452 307 1465 346 1478 403 
L 1920 2176 
L 2553 2176 
C 3052 2176 3091 2066 3091 1874 
C 3091 1810 3091 1752 3046 1559 
C 3033 1534 3027 1508 3027 1489 
C 3027 1444 3059 1424 3097 1424 
C 3155 1424 3161 1469 3187 1559 
L 3552 3036 
C 3552 3068 3526 3099 3488 3099 
C 3430 3099 3424 3074 3398 2986 
C 3270 2500 3142 2361 2572 2361 
L 1964 2361 
L 2361 3913 
C 2419 4134 2432 4153 2694 4153 
L 3609 4153 
C 4397 4153 4557 3945 4557 3465 
C 4557 3459 4557 3282 4531 3074 
C 4525 3049 4518 3011 4518 2998 
C 4518 2948 4550 2929 4589 2929 
C 4633 2929 4659 2954 4672 3068 
L 4806 4172 
C 4806 4191 4819 4255 4819 4268 
C 4819 4339 4761 4339 4646 4339 
L 1523 4339 
C 1401 4339 1337 4339 1337 4223 
C 1337 4153 1382 4153 1491 4153 
C 1888 4153 1888 4109 1888 4039 
C 1888 4008 1881 3983 1862 3913 
L 998 474 
C 940 249 928 185 480 185 
C 358 185 294 185 294 70 
C 294 0 332 0 460 0 
L 3673 0 
C 3814 0 3821 6 3865 108 
L 4448 1489 
z
" transform="scale(0.015625)"/>
       <path id="CMR17-45" d="M 3974 4351 
C 3974 4467 3968 4473 3929 4473 
C 3904 4473 3897 4467 3853 4390 
L 3571 3849 
C 3257 4249 2873 4480 2380 4480 
C 1286 4480 294 3507 294 2179 
C 294 837 1286 -128 2387 -128 
C 3366 -128 3974 741 3974 1482 
C 3974 1547 3974 1573 3917 1573 
C 3865 1573 3865 1553 3859 1495 
C 3808 592 3168 38 2476 38 
C 1824 38 780 502 780 2179 
C 780 3862 1843 4313 2464 4313 
C 3187 4313 3712 3681 3833 2785 
C 3846 2707 3846 2695 3904 2695 
C 3974 2695 3974 2707 3974 2824 
L 3974 4351 
z
" transform="scale(0.015625)"/>
       <path id="CMR17-55" d="M 2803 4351 
C 2803 4467 2796 4473 2758 4473 
C 2720 4473 2707 4447 2681 4390 
L 2489 3965 
C 2246 4320 1875 4480 1472 4480 
C 819 4480 294 3958 294 3301 
C 294 3101 339 2817 556 2546 
C 793 2250 1017 2198 1529 2063 
C 1721 2011 2041 1927 2105 1901 
C 2470 1747 2662 1360 2662 999 
C 2662 534 2336 38 1779 38 
C 1094 38 454 425 409 1328 
C 403 1431 396 1437 352 1437 
C 300 1437 294 1431 294 1302 
L 294 0 
C 294 -116 300 -122 339 -122 
C 384 -122 396 -90 486 109 
C 492 128 492 141 614 386 
C 934 -39 1472 -128 1779 -128 
C 2476 -128 2969 457 2969 1141 
C 2969 1476 2848 1734 2777 1850 
C 2508 2263 2220 2340 1913 2417 
C 1868 2437 1856 2437 1497 2527 
C 1152 2617 1004 2662 844 2836 
C 665 3036 601 3243 601 3449 
C 601 3868 934 4326 1478 4326 
C 2156 4326 2579 3842 2675 3036 
C 2694 2920 2700 2914 2745 2914 
C 2803 2914 2803 2933 2803 3043 
L 2803 4351 
z
" transform="scale(0.015625)"/>
       <path id="CMR17-46" d="M 332 4352 
L 332 4185 
C 774 4185 844 4185 844 3898 
L 844 453 
C 844 166 774 166 332 166 
L 332 0 
L 2368 0 
C 3398 0 4224 943 4224 2140 
C 4224 3344 3411 4352 2368 4352 
L 332 4352 
z
M 1523 166 
C 1267 166 1254 198 1254 414 
L 1254 3936 
C 1254 4153 1267 4185 1523 4185 
L 2240 4185 
C 2771 4185 3750 3873 3750 2140 
C 3750 1242 3488 879 3366 707 
C 3212 510 2848 166 2240 166 
L 1523 166 
z
" transform="scale(0.015625)"/>
      </defs>
      <use xlink:href="#CMSY10-6b" transform="scale(0.996264)"/>
      <use xlink:href="#CMMI12-46" transform="translate(27.674085 0) scale(0.996264)"/>
      <use xlink:href="#CMSY10-1" transform="translate(127.864928 0) scale(0.996264)"/>
      <use xlink:href="#CMMI12-46" transform="translate(227.491603 0) scale(0.996264)"/>
      <use xlink:href="#CMR17-45" transform="translate(299.70282 -14.943915) scale(0.697382)"/>
      <use xlink:href="#CMR17-45" transform="translate(346.259525 -14.943915) scale(0.697382)"/>
      <use xlink:href="#CMR17-55" transform="translate(392.816231 -14.943915) scale(0.697382)"/>
      <use xlink:href="#CMR17-46" transform="translate(428.442839 -14.943915) scale(0.697382)"/>
      <use xlink:href="#CMSY10-6b" transform="translate(478.216241 0) scale(0.996264)"/>
      <use xlink:href="#CenturySchL-Roma-f4" transform="translate(533.585495 0) scale(0.996264)"/>
      <use xlink:href="#CenturySchL-Roma-8c" transform="translate(566.760725 0) scale(0.996264)"/>
      <use xlink:href="#CenturySchL-Roma-a6" transform="translate(649.749155 0) scale(0.996264)"/>
      <use xlink:href="#CenturySchL-Roma-f5" transform="translate(705.140832 0) scale(0.996264)"/>
     </g>
    </g>
   </g>
   <g id="legend_2">
    <g id="line2d_93">
     <path d="M 54.936986 142.3715 
L 63.266986 142.3715 
L 71.596986 142.3715 
" style="fill: none; stroke-dasharray: 6,6; stroke-dashoffset: 0; stroke: #808080"/>
    </g>
    <g id="text_26">
     <!-- Chemical accuracy -->
     <g transform="translate(78.260986 145.287) scale(0.0833 -0.0833)">
      <defs>
       <path id="CenturySchL-Roma-a8" d="M 2476 915 
C 2272 449 2054 262 1721 262 
C 1209 262 889 734 889 1490 
C 889 2272 1203 2796 1676 2796 
C 1868 2796 2035 2706 2035 2602 
C 2035 2583 2022 2563 1996 2525 
C 1894 2402 1868 2337 1868 2227 
C 1868 2014 2028 1865 2252 1865 
C 2476 1865 2643 2046 2643 2305 
C 2643 2738 2214 3072 1644 3072 
C 812 3072 217 2382 217 1419 
C 217 501 761 -128 1555 -128 
C 2124 -128 2451 134 2726 818 
L 2476 915 
z
" transform="scale(0.015625)"/>
       <path id="CenturySchL-Roma-ba" d="M 2636 -45 
L 3801 0 
L 3801 275 
L 3641 275 
C 3289 275 3238 333 3238 747 
L 3238 3008 
L 2035 2944 
L 2035 2668 
L 2361 2668 
C 2598 2668 2636 2622 2636 2340 
L 2636 1531 
C 2636 1156 2598 939 2502 722 
C 2368 433 2112 262 1798 262 
C 1600 262 1433 334 1350 466 
C 1267 591 1254 656 1254 1018 
L 1254 3008 
L 134 2944 
L 134 2668 
L 377 2668 
C 614 2668 652 2622 652 2340 
L 652 919 
C 652 584 678 433 774 282 
C 947 19 1254 -128 1638 -128 
C 2060 -128 2355 44 2636 459 
L 2636 -45 
z
" transform="scale(0.015625)"/>
      </defs>
      <use xlink:href="#CenturySchL-Roma-87" transform="scale(0.996264)"/>
      <use xlink:href="#CenturySchL-Roma-ad" transform="translate(71.929985 0) scale(0.996264)"/>
      <use xlink:href="#CenturySchL-Roma-aa" transform="translate(132.801616 0) scale(0.996264)"/>
      <use xlink:href="#CenturySchL-Roma-b2" transform="translate(182.614816 0) scale(0.996264)"/>
      <use xlink:href="#CenturySchL-Roma-ae" transform="translate(271.181723 0) scale(0.996264)"/>
      <use xlink:href="#CenturySchL-Roma-a8" transform="translate(302.563036 0) scale(0.996264)"/>
      <use xlink:href="#CenturySchL-Roma-a6" transform="translate(346.796604 0) scale(0.996264)"/>
      <use xlink:href="#CenturySchL-Roma-b1" transform="translate(402.188281 0) scale(0.996264)"/>
      <use xlink:href="#CenturySchL-Roma-a6" transform="translate(461.264764 0) scale(0.996264)"/>
      <use xlink:href="#CenturySchL-Roma-a8" transform="translate(516.656441 0) scale(0.996264)"/>
      <use xlink:href="#CenturySchL-Roma-a8" transform="translate(560.89001 0) scale(0.996264)"/>
      <use xlink:href="#CenturySchL-Roma-ba" transform="translate(605.123578 0) scale(0.996264)"/>
      <use xlink:href="#CenturySchL-Roma-b7" transform="translate(665.995209 0) scale(0.996264)"/>
      <use xlink:href="#CenturySchL-Roma-a6" transform="translate(710.228778 0) scale(0.996264)"/>
      <use xlink:href="#CenturySchL-Roma-a8" transform="translate(765.620455 0) scale(0.996264)"/>
      <use xlink:href="#CenturySchL-Roma-be" transform="translate(809.854023 0) scale(0.996264)"/>
     </g>
    </g>
   </g>
  </g>
  <g id="axes_3">
   <g id="patch_9">
    <path d="M 266.139195 237.158377 
L 406.8 237.158377 
L 406.8 198.74882 
L 266.139195 198.74882 
z
" style="fill: #ffffff"/>
   </g>
   <g id="line2d_94">
    <path d="M 273.172235 228.258093 
L 287.238315 227.059011 
L 301.304396 226.226877 
L 315.370476 225.16835 
L 329.436557 222.74876 
L 343.502638 221.92663 
L 357.568718 220.242071 
L 371.634799 218.510367 
L 385.700879 217.317318 
L 399.76696 215.060909 
" clip-path="url(#pe6006590a2)" style="fill: none; stroke: #000000; stroke-linecap: square"/>
    <defs>
     <path id="me7c0fe1a90" d="M 0 -2 
L -2 2 
L 2 2 
z
" style="stroke: #000000; stroke-width: 0.5; stroke-linejoin: miter"/>
    </defs>
    <g clip-path="url(#pe6006590a2)">
     <use xlink:href="#me7c0fe1a90" x="273.172235" y="228.258093" style="stroke: #000000; stroke-width: 0.5; stroke-linejoin: miter"/>
     <use xlink:href="#me7c0fe1a90" x="287.238315" y="227.059011" style="stroke: #000000; stroke-width: 0.5; stroke-linejoin: miter"/>
     <use xlink:href="#me7c0fe1a90" x="301.304396" y="226.226877" style="stroke: #000000; stroke-width: 0.5; stroke-linejoin: miter"/>
     <use xlink:href="#me7c0fe1a90" x="315.370476" y="225.16835" style="stroke: #000000; stroke-width: 0.5; stroke-linejoin: miter"/>
     <use xlink:href="#me7c0fe1a90" x="329.436557" y="222.74876" style="stroke: #000000; stroke-width: 0.5; stroke-linejoin: miter"/>
     <use xlink:href="#me7c0fe1a90" x="343.502638" y="221.92663" style="stroke: #000000; stroke-width: 0.5; stroke-linejoin: miter"/>
     <use xlink:href="#me7c0fe1a90" x="357.568718" y="220.242071" style="stroke: #000000; stroke-width: 0.5; stroke-linejoin: miter"/>
     <use xlink:href="#me7c0fe1a90" x="371.634799" y="218.510367" style="stroke: #000000; stroke-width: 0.5; stroke-linejoin: miter"/>
     <use xlink:href="#me7c0fe1a90" x="385.700879" y="217.317318" style="stroke: #000000; stroke-width: 0.5; stroke-linejoin: miter"/>
     <use xlink:href="#me7c0fe1a90" x="399.76696" y="215.060909" style="stroke: #000000; stroke-width: 0.5; stroke-linejoin: miter"/>
    </g>
   </g>
   <g id="line2d_95">
    <path d="M 273.172235 214.855543 
L 287.238315 214.12794 
L 301.304396 211.611085 
L 315.370476 212.013909 
L 329.436557 210.428399 
L 343.502638 209.085614 
L 357.568718 206.767032 
L 371.634799 204.803154 
L 385.700879 202.019271 
L 399.76696 203.661595 
" clip-path="url(#pe6006590a2)" style="fill: none; stroke: #000000; stroke-linecap: square"/>
    <defs>
     <path id="m7e52e2ca36" d="M -0 2.828427 
L 2.828427 0 
L 0 -2.828427 
L -2.828427 -0 
z
" style="stroke: #000000; stroke-width: 0.5; stroke-linejoin: miter"/>
    </defs>
    <g clip-path="url(#pe6006590a2)">
     <use xlink:href="#m7e52e2ca36" x="273.172235" y="214.855543" style="stroke: #000000; stroke-width: 0.5; stroke-linejoin: miter"/>
     <use xlink:href="#m7e52e2ca36" x="287.238315" y="214.12794" style="stroke: #000000; stroke-width: 0.5; stroke-linejoin: miter"/>
     <use xlink:href="#m7e52e2ca36" x="301.304396" y="211.611085" style="stroke: #000000; stroke-width: 0.5; stroke-linejoin: miter"/>
     <use xlink:href="#m7e52e2ca36" x="315.370476" y="212.013909" style="stroke: #000000; stroke-width: 0.5; stroke-linejoin: miter"/>
     <use xlink:href="#m7e52e2ca36" x="329.436557" y="210.428399" style="stroke: #000000; stroke-width: 0.5; stroke-linejoin: miter"/>
     <use xlink:href="#m7e52e2ca36" x="343.502638" y="209.085614" style="stroke: #000000; stroke-width: 0.5; stroke-linejoin: miter"/>
     <use xlink:href="#m7e52e2ca36" x="357.568718" y="206.767032" style="stroke: #000000; stroke-width: 0.5; stroke-linejoin: miter"/>
     <use xlink:href="#m7e52e2ca36" x="371.634799" y="204.803154" style="stroke: #000000; stroke-width: 0.5; stroke-linejoin: miter"/>
     <use xlink:href="#m7e52e2ca36" x="385.700879" y="202.019271" style="stroke: #000000; stroke-width: 0.5; stroke-linejoin: miter"/>
     <use xlink:href="#m7e52e2ca36" x="399.76696" y="203.661595" style="stroke: #000000; stroke-width: 0.5; stroke-linejoin: miter"/>
    </g>
   </g>
   <g id="line2d_96">
    <path d="M 273.172235 194.907864 
" style="fill: none; stroke: #000000; stroke-linecap: square"/>
    <g>
     <use xlink:href="#m7e52e2ca36" x="273.172235" y="194.907864" style="stroke: #000000; stroke-width: 0.5; stroke-linejoin: miter"/>
    </g>
   </g>
   <g id="line2d_97">
    <path d="M 273.172235 202.20568 
" style="fill: none; stroke: #000000; stroke-linecap: square"/>
    <g>
     <use xlink:href="#me7c0fe1a90" x="273.172235" y="202.20568" style="stroke: #000000; stroke-width: 0.5; stroke-linejoin: miter"/>
    </g>
   </g>
   <g id="patch_10">
    <path d="M 266.139195 237.158377 
L 266.139195 198.74882 
" style="fill: none; stroke: #000000; stroke-width: 0.8; stroke-linejoin: miter; stroke-linecap: square"/>
   </g>
   <g id="patch_11">
    <path d="M 266.139195 237.158377 
L 406.8 237.158377 
" style="fill: none; stroke: #000000; stroke-width: 0.8; stroke-linejoin: miter; stroke-linecap: square"/>
   </g>
   <g id="matplotlib.axis_5">
    <g id="xtick_9">
     <g id="line2d_98">
      <path d="M 294.271356 237.158377 
L 294.271356 198.74882 
" clip-path="url(#pe6006590a2)" style="fill: none; stroke: #000000; stroke-opacity: 0; stroke-width: 0.5; stroke-linecap: square"/>
     </g>
     <g id="line2d_99">
      <g>
       <use xlink:href="#m4af6a6387d" x="294.271356" y="237.158377" style="stroke: #000000; stroke-width: 0.8"/>
      </g>
     </g>
    </g>
    <g id="xtick_10">
     <g id="line2d_100">
      <path d="M 329.436557 237.158377 
L 329.436557 198.74882 
" clip-path="url(#pe6006590a2)" style="fill: none; stroke: #000000; stroke-opacity: 0; stroke-width: 0.5; stroke-linecap: square"/>
     </g>
     <g id="line2d_101">
      <g>
       <use xlink:href="#m4af6a6387d" x="329.436557" y="237.158377" style="stroke: #000000; stroke-width: 0.8"/>
      </g>
     </g>
    </g>
    <g id="xtick_11">
     <g id="line2d_102">
      <path d="M 364.601758 237.158377 
L 364.601758 198.74882 
" clip-path="url(#pe6006590a2)" style="fill: none; stroke: #000000; stroke-opacity: 0; stroke-width: 0.5; stroke-linecap: square"/>
     </g>
     <g id="line2d_103">
      <g>
       <use xlink:href="#m4af6a6387d" x="364.601758" y="237.158377" style="stroke: #000000; stroke-width: 0.8"/>
      </g>
     </g>
    </g>
    <g id="xtick_12">
     <g id="line2d_104">
      <path d="M 399.76696 237.158377 
L 399.76696 198.74882 
" clip-path="url(#pe6006590a2)" style="fill: none; stroke: #000000; stroke-opacity: 0; stroke-width: 0.5; stroke-linecap: square"/>
     </g>
     <g id="line2d_105">
      <g>
       <use xlink:href="#m4af6a6387d" x="399.76696" y="237.158377" style="stroke: #000000; stroke-width: 0.8"/>
      </g>
     </g>
    </g>
   </g>
   <g id="matplotlib.axis_6">
    <g id="ytick_33">
     <g id="line2d_106">
      <path d="M 266.139195 232.357183 
L 406.8 232.357183 
" clip-path="url(#pe6006590a2)" style="fill: none; stroke: #000000; stroke-opacity: 0; stroke-width: 0.5; stroke-linecap: square"/>
     </g>
     <g id="line2d_107">
      <g>
       <use xlink:href="#m69f7822092" x="266.139195" y="232.357183" style="stroke: #000000; stroke-width: 0.8"/>
      </g>
     </g>
     <g id="text_27">
      <!-- $\mathdefault{10^{-3}}$ -->
      <g transform="translate(243.074639 234.969616) scale(0.0833 -0.0833)">
       <defs>
        <path id="CMR17-35" d="M 1414 2176 
C 1984 2176 2233 1673 2233 1094 
C 2233 322 1824 25 1452 25 
C 1113 25 563 193 390 691 
C 422 678 454 678 486 678 
C 640 678 755 780 755 947 
C 755 1132 614 1216 486 1216 
C 377 1216 211 1164 211 927 
C 211 335 787 -128 1465 -128 
C 2176 -128 2720 432 2720 1087 
C 2720 1718 2208 2176 1600 2246 
C 2086 2347 2553 2776 2553 3353 
C 2553 3856 2048 4224 1472 4224 
C 889 4224 377 3862 377 3347 
C 377 3123 544 3084 627 3084 
C 761 3084 876 3167 876 3334 
C 876 3500 761 3584 627 3584 
C 601 3584 569 3584 544 3571 
C 729 3999 1235 4076 1459 4076 
C 1683 4076 2105 3966 2105 3347 
C 2105 3167 2080 2851 1862 2574 
C 1670 2329 1452 2316 1241 2297 
C 1209 2297 1062 2284 1036 2284 
C 992 2278 966 2272 966 2227 
C 966 2182 972 2176 1100 2176 
L 1414 2176 
z
" transform="scale(0.015625)"/>
       </defs>
       <use xlink:href="#CMR17-33" transform="scale(0.996264)"/>
       <use xlink:href="#CMR17-32" transform="translate(45.690477 0) scale(0.996264)"/>
       <use xlink:href="#CMSY10-1" transform="translate(91.380954 36.153639) scale(0.697382)"/>
       <use xlink:href="#CMR17-35" transform="translate(145.621947 36.153639) scale(0.697382)"/>
      </g>
     </g>
    </g>
    <g id="ytick_34">
     <g id="line2d_108">
      <path d="M 266.139195 222.754793 
L 406.8 222.754793 
" clip-path="url(#pe6006590a2)" style="fill: none; stroke: #000000; stroke-opacity: 0; stroke-width: 0.5; stroke-linecap: square"/>
     </g>
     <g id="line2d_109">
      <g>
       <use xlink:href="#m69f7822092" x="266.139195" y="222.754793" style="stroke: #000000; stroke-width: 0.8"/>
      </g>
     </g>
     <g id="text_28">
      <!-- $\mathdefault{10^{-1}}$ -->
      <g transform="translate(243.074639 225.367227) scale(0.0833 -0.0833)">
       <use xlink:href="#CMR17-33" transform="scale(0.996264)"/>
       <use xlink:href="#CMR17-32" transform="translate(45.690477 0) scale(0.996264)"/>
       <use xlink:href="#CMSY10-1" transform="translate(91.380954 36.153639) scale(0.697382)"/>
       <use xlink:href="#CMR17-33" transform="translate(145.621947 36.153639) scale(0.697382)"/>
      </g>
     </g>
    </g>
    <g id="ytick_35">
     <g id="line2d_110">
      <path d="M 266.139195 213.152404 
L 406.8 213.152404 
" clip-path="url(#pe6006590a2)" style="fill: none; stroke: #000000; stroke-opacity: 0; stroke-width: 0.5; stroke-linecap: square"/>
     </g>
     <g id="line2d_111">
      <g>
       <use xlink:href="#m69f7822092" x="266.139195" y="213.152404" style="stroke: #000000; stroke-width: 0.8"/>
      </g>
     </g>
     <g id="text_29">
      <!-- $\mathdefault{10^{1}}$ -->
      <g transform="translate(249.367995 215.700276) scale(0.0833 -0.0833)">
       <use xlink:href="#CMR17-33" transform="scale(0.996264)"/>
       <use xlink:href="#CMR17-32" transform="translate(45.690477 0) scale(0.996264)"/>
       <use xlink:href="#CMR17-33" transform="translate(91.380954 36.153639) scale(0.697382)"/>
      </g>
     </g>
    </g>
    <g id="ytick_36">
     <g id="line2d_112">
      <path d="M 266.139195 203.550015 
L 406.8 203.550015 
" clip-path="url(#pe6006590a2)" style="fill: none; stroke: #000000; stroke-opacity: 0; stroke-width: 0.5; stroke-linecap: square"/>
     </g>
     <g id="line2d_113">
      <g>
       <use xlink:href="#m69f7822092" x="266.139195" y="203.550015" style="stroke: #000000; stroke-width: 0.8"/>
      </g>
     </g>
     <g id="text_30">
      <!-- $\mathdefault{10^{3}}$ -->
      <g transform="translate(249.367995 206.097887) scale(0.0833 -0.0833)">
       <use xlink:href="#CMR17-33" transform="scale(0.996264)"/>
       <use xlink:href="#CMR17-32" transform="translate(45.690477 0) scale(0.996264)"/>
       <use xlink:href="#CMR17-35" transform="translate(91.380954 36.153639) scale(0.697382)"/>
      </g>
     </g>
    </g>
    <g id="text_31">
     <!-- Runtime (s) -->
     <g transform="translate(237.49788 240.542854) rotate(-90) scale(0.0833 -0.0833)">
      <defs>
       <path id="CenturySchL-Roma-96" d="M 1574 2240 
L 1945 2240 
C 2195 2240 2451 2161 2592 2044 
C 2777 1894 2873 1660 2918 1230 
L 2950 898 
C 3027 166 3264 -128 3769 -128 
C 4294 -128 4544 224 4563 1002 
L 4294 1002 
C 4269 553 4192 358 4019 358 
C 3872 358 3808 469 3699 918 
L 3597 1328 
C 3456 1927 3206 2200 2707 2329 
C 3629 2457 4070 2826 4070 3468 
C 4070 4192 3456 4608 2380 4608 
L 166 4608 
L 166 4307 
L 281 4307 
C 800 4307 857 4275 857 4008 
L 857 3824 
L 857 755 
L 857 573 
C 857 332 800 300 281 300 
L 166 300 
L 166 0 
L 2265 0 
L 2265 300 
L 2150 300 
C 1632 300 1574 332 1574 601 
L 1574 780 
L 1574 2240 
z
M 1574 2540 
L 1574 3938 
C 1574 4192 1580 4211 1644 4262 
C 1696 4300 1740 4307 2016 4307 
L 2361 4307 
C 2995 4307 3283 4040 3283 3462 
C 3283 3138 3200 2890 3033 2756 
C 2873 2623 2585 2540 2278 2540 
L 1574 2540 
z
" transform="scale(0.015625)"/>
      </defs>
      <use xlink:href="#CenturySchL-Roma-96" transform="scale(0.996264)"/>
      <use xlink:href="#CenturySchL-Roma-ba" transform="translate(71.929985 0) scale(0.996264)"/>
      <use xlink:href="#CenturySchL-Roma-b3" transform="translate(132.801616 0) scale(0.996264)"/>
      <use xlink:href="#CenturySchL-Roma-b9" transform="translate(193.673246 0) scale(0.996264)"/>
      <use xlink:href="#CenturySchL-Roma-ae" transform="translate(232.426952 0) scale(0.996264)"/>
      <use xlink:href="#CenturySchL-Roma-b2" transform="translate(263.808265 0) scale(0.996264)"/>
      <use xlink:href="#CenturySchL-Roma-aa" transform="translate(352.375172 0) scale(0.996264)"/>
      <use xlink:href="#CenturySchL-Roma-f4" transform="translate(429.883542 0) scale(0.996264)"/>
      <use xlink:href="#CenturySchL-Roma-b8" transform="translate(463.058772 0) scale(0.996264)"/>
      <use xlink:href="#CenturySchL-Roma-f5" transform="translate(509.184582 0) scale(0.996264)"/>
     </g>
    </g>
   </g>
   <g id="text_32">
    <!-- Variational optimization -->
    <g transform="translate(283.018491 196.499924) scale(0.0579 -0.0579)">
     <defs>
      <path id="CenturySchL-Roma-9a" d="M 2515 964 
L 1344 3953 
C 1312 4030 1292 4107 1292 4146 
C 1292 4262 1401 4307 1689 4307 
L 1945 4307 
L 1945 4608 
L -52 4608 
L -52 4307 
L 76 4307 
C 364 4307 448 4242 569 3947 
L 2188 -128 
L 2444 -128 
L 3917 3677 
C 4109 4178 4249 4307 4614 4307 
L 4678 4307 
L 4678 4608 
L 2944 4608 
L 2944 4307 
L 3065 4307 
C 3392 4307 3584 4178 3584 3972 
C 3584 3882 3552 3735 3507 3612 
L 2515 964 
z
" transform="scale(0.015625)"/>
     </defs>
     <use xlink:href="#CenturySchL-Roma-9a" transform="scale(0.996264)"/>
     <use xlink:href="#CenturySchL-Roma-a6" transform="translate(63.461923 0) scale(0.996264)"/>
     <use xlink:href="#CenturySchL-Roma-b7" transform="translate(118.8536 0) scale(0.996264)"/>
     <use xlink:href="#CenturySchL-Roma-ae" transform="translate(163.087169 0) scale(0.996264)"/>
     <use xlink:href="#CenturySchL-Roma-a6" transform="translate(194.468482 0) scale(0.996264)"/>
     <use xlink:href="#CenturySchL-Roma-b9" transform="translate(249.860159 0) scale(0.996264)"/>
     <use xlink:href="#CenturySchL-Roma-ae" transform="translate(288.613865 0) scale(0.996264)"/>
     <use xlink:href="#CenturySchL-Roma-b4" transform="translate(319.995178 0) scale(0.996264)"/>
     <use xlink:href="#CenturySchL-Roma-b3" transform="translate(369.808378 0) scale(0.996264)"/>
     <use xlink:href="#CenturySchL-Roma-a6" transform="translate(430.680009 0) scale(0.996264)"/>
     <use xlink:href="#CenturySchL-Roma-b1" transform="translate(486.071686 0) scale(0.996264)"/>
     <use xlink:href="#CenturySchL-Roma-b4" transform="translate(545.148169 0) scale(0.996264)"/>
     <use xlink:href="#CenturySchL-Roma-b5" transform="translate(594.961369 0) scale(0.996264)"/>
     <use xlink:href="#CenturySchL-Roma-b9" transform="translate(652.146857 0) scale(0.996264)"/>
     <use xlink:href="#CenturySchL-Roma-ae" transform="translate(690.900563 0) scale(0.996264)"/>
     <use xlink:href="#CenturySchL-Roma-b2" transform="translate(722.281876 0) scale(0.996264)"/>
     <use xlink:href="#CenturySchL-Roma-ae" transform="translate(810.848782 0) scale(0.996264)"/>
     <use xlink:href="#CenturySchL-Roma-bf" transform="translate(842.230095 0) scale(0.996264)"/>
     <use xlink:href="#CenturySchL-Roma-a6" transform="translate(890.149807 0) scale(0.996264)"/>
     <use xlink:href="#CenturySchL-Roma-b9" transform="translate(945.541484 0) scale(0.996264)"/>
     <use xlink:href="#CenturySchL-Roma-ae" transform="translate(984.295191 0) scale(0.996264)"/>
     <use xlink:href="#CenturySchL-Roma-b4" transform="translate(1015.676504 0) scale(0.996264)"/>
     <use xlink:href="#CenturySchL-Roma-b3" transform="translate(1065.489704 0) scale(0.996264)"/>
    </g>
   </g>
   <g id="text_33">
    <!-- UCJ (CCSD params) -->
    <g transform="translate(283.018491 203.79774) scale(0.0579 -0.0579)">
     <use xlink:href="#CenturySchL-Roma-99" transform="scale(0.996264)"/>
     <use xlink:href="#CenturySchL-Roma-87" transform="translate(81.194513 0) scale(0.996264)"/>
     <use xlink:href="#CenturySchL-Roma-8e" transform="translate(153.124498 0) scale(0.996264)"/>
     <use xlink:href="#CenturySchL-Roma-f4" transform="translate(236.211345 0) scale(0.996264)"/>
     <use xlink:href="#CenturySchL-Roma-87" transform="translate(269.386575 0) scale(0.996264)"/>
     <use xlink:href="#CenturySchL-Roma-87" transform="translate(341.316559 0) scale(0.996264)"/>
     <use xlink:href="#CenturySchL-Roma-97" transform="translate(413.246544 0) scale(0.996264)"/>
     <use xlink:href="#CenturySchL-Roma-88" transform="translate(476.010523 0) scale(0.996264)"/>
     <use xlink:href="#CenturySchL-Roma-b5" transform="translate(581.214063 0) scale(0.996264)"/>
     <use xlink:href="#CenturySchL-Roma-a6" transform="translate(638.39955 0) scale(0.996264)"/>
     <use xlink:href="#CenturySchL-Roma-b7" transform="translate(693.791227 0) scale(0.996264)"/>
     <use xlink:href="#CenturySchL-Roma-a6" transform="translate(738.024796 0) scale(0.996264)"/>
     <use xlink:href="#CenturySchL-Roma-b2" transform="translate(793.416473 0) scale(0.996264)"/>
     <use xlink:href="#CenturySchL-Roma-b8" transform="translate(881.98338 0) scale(0.996264)"/>
     <use xlink:href="#CenturySchL-Roma-f5" transform="translate(928.10919 0) scale(0.996264)"/>
    </g>
   </g>
  </g>
 </g>
 <defs>
  <clipPath id="p0e6b8c910f">
   <rect x="47.439986" y="11.378278" width="370.160014" height="109.741592"/>
  </clipPath>
  <clipPath id="pd42a0a3e31">
   <rect x="47.439986" y="138.216785" width="370.160014" height="109.741592"/>
  </clipPath>
  <clipPath id="pe6006590a2">
   <rect x="266.139195" y="198.74882" width="140.660805" height="38.409557"/>
  </clipPath>
 </defs>
</svg>
